<svg width="552" height="352" viewBox="0 0 552 352" fill="none" xmlns="http://www.w3.org/2000/svg">
<path d="M410.5 80.5L387 26L393 119.5L414 183.5L410.5 80.5Z" fill="#591B2E"/>
<path d="M539.5 60L410.5 80.5L414 183.5L527.5 159.5L539.5 60Z" fill="#FF5088"/>
<path d="M410.5 80.5L387 26L497.5 12.5L539.5 60L410.5 80.5Z" fill="#CC3F6B"/>
<path d="M134.5 182.5L78 193L101.5 220L130.25 214.25L159 208.5L134.5 182.5Z" fill="#2B3D4D"/>
<path d="M134.5 128.5V182.5L159 208.5V156.5C152 148.167 137.3 130.9 134.5 128.5Z" fill="#324759"/>
<path d="M78 193V139.5L134.5 128.5V182.5L78 193Z" fill="#6DB7DE"/>
<path d="M352.5 342.5L305.5 320L134.5 331.5L204.5 350.5L352.5 342.5Z" fill="#411422"/>
<path d="M305.5 320L303.5 136L348.5 189L352.5 342.5L305.5 320Z" fill="#A73457"/>
<path d="M303.5 136L142.5 163.5L134.5 331.5L305.5 320L303.5 136Z" fill="#FF4E85"/>
<path d="M51 26.5L58 61L81 41.5L76 9C68.1667 14.8333 52.2 26.5 51 26.5Z" fill="#A9224C"/>
<path d="M23 19.5L51 26.5C52.2 26.5 68.1667 14.8333 76 9L48.5 5L23 19.5Z" fill="#811F3D"/>
<path d="M31 50.5L23 19.5L51 26.5L58 61L31 50.5Z" fill="#5A192D"/>
</svg>
