<svg width="240" height="50" viewBox="0 0 240 50" fill="none" xmlns="http://www.w3.org/2000/svg">
<path d="M72.0938 35.4688H73.5762V44H72.0938V37.9238L68.3496 44H66.8672V35.4688H68.3496V41.5508L72.0938 35.4688ZM82.905 44H81.4284V40.209H77.614V44H76.1316V35.4688H77.614V39.0195H81.4284V35.4688H82.905V44ZM91.4311 36.6641H88.7709V44H87.3002V36.6641H84.6635V35.4688H91.4311V36.6641ZM98.3224 40.1914H94.8185V42.8164H98.9142V44H93.3361V35.4688H98.8732V36.6641H94.8185V39.0195H98.3224V40.1914ZM106.356 36.6641H102.419V44H100.942V35.4688H106.356V36.6641ZM109.855 40.8301V44H108.373V35.4688H111.636C112.589 35.4688 113.345 35.7168 113.904 36.2129C114.466 36.709 114.748 37.3652 114.748 38.1816C114.748 39.0176 114.472 39.668 113.921 40.1328C113.375 40.5977 112.607 40.8301 111.619 40.8301H109.855ZM109.855 39.6406H111.636C112.164 39.6406 112.566 39.5176 112.843 39.2715C113.121 39.0215 113.259 38.6621 113.259 38.1934C113.259 37.7324 113.119 37.3652 112.838 37.0918C112.556 36.8145 112.17 36.6719 111.677 36.6641H109.855V39.6406ZM120.561 42.0137H117.256L116.565 44H115.024L118.246 35.4688H119.576L122.805 44H121.258L120.561 42.0137ZM117.672 40.8184H120.145L118.909 37.2793L117.672 40.8184ZM130.019 36.6641H127.358V44H125.888V36.6641H123.251V35.4688H130.019V36.6641ZM138.568 39.957C138.568 40.793 138.424 41.5273 138.135 42.1602C137.845 42.7891 137.431 43.2734 136.892 43.6133C136.357 43.9492 135.74 44.1172 135.041 44.1172C134.349 44.1172 133.732 43.9492 133.189 43.6133C132.65 43.2734 132.232 42.791 131.935 42.166C131.642 41.541 131.494 40.8203 131.49 40.0039V39.5234C131.49 38.6914 131.636 37.957 131.929 37.3203C132.226 36.6836 132.642 36.1973 133.177 35.8613C133.717 35.5215 134.334 35.3516 135.029 35.3516C135.724 35.3516 136.34 35.5195 136.875 35.8555C137.414 36.1875 137.83 36.668 138.123 37.2969C138.416 37.9219 138.564 38.6504 138.568 39.4824V39.957ZM137.086 39.5117C137.086 38.5664 136.906 37.8418 136.547 37.3379C136.191 36.834 135.685 36.582 135.029 36.582C134.388 36.582 133.886 36.834 133.523 37.3379C133.164 37.8379 132.98 38.5469 132.972 39.4648V39.957C132.972 40.8945 133.154 41.6191 133.517 42.1309C133.885 42.6426 134.392 42.8984 135.041 42.8984C135.697 42.8984 136.201 42.6484 136.552 42.1484C136.908 41.6484 137.086 40.918 137.086 39.957V39.5117ZM142.307 40.8301V44H140.825V35.4688H144.088C145.041 35.4688 145.797 35.7168 146.356 36.2129C146.918 36.709 147.2 37.3652 147.2 38.1816C147.2 39.0176 146.924 39.668 146.374 40.1328C145.827 40.5977 145.059 40.8301 144.071 40.8301H142.307ZM142.307 39.6406H144.088C144.616 39.6406 145.018 39.5176 145.295 39.2715C145.573 39.0215 145.711 38.6621 145.711 38.1934C145.711 37.7324 145.571 37.3652 145.29 37.0918C145.008 36.8145 144.622 36.6719 144.129 36.6641H142.307V39.6406ZM159.559 41.2227C159.473 42.1328 159.137 42.8438 158.551 43.3555C157.965 43.8633 157.185 44.1172 156.213 44.1172C155.533 44.1172 154.934 43.957 154.414 43.6367C153.898 43.3125 153.5 42.8535 153.219 42.2598C152.937 41.666 152.791 40.9766 152.779 40.1914V39.3945C152.779 38.5898 152.922 37.8809 153.207 37.2676C153.492 36.6543 153.9 36.1816 154.432 35.8496C154.967 35.5176 155.584 35.3516 156.283 35.3516C157.225 35.3516 157.982 35.6074 158.557 36.1191C159.131 36.6309 159.465 37.3535 159.559 38.2871H158.082C158.012 37.6738 157.832 37.2324 157.543 36.9629C157.258 36.6895 156.838 36.5527 156.283 36.5527C155.639 36.5527 155.143 36.7891 154.795 37.2617C154.451 37.7305 154.275 38.4199 154.268 39.3301V40.0859C154.268 41.0078 154.432 41.7109 154.76 42.1953C155.092 42.6797 155.576 42.9219 156.213 42.9219C156.795 42.9219 157.232 42.791 157.525 42.5293C157.818 42.2676 158.004 41.832 158.082 41.2227H159.559ZM164.803 40.7129H163.151V44H161.669V35.4688H164.669C165.653 35.4688 166.413 35.6895 166.948 36.1309C167.483 36.5723 167.751 37.2109 167.751 38.0469C167.751 38.6172 167.612 39.0957 167.335 39.4824C167.061 39.8652 166.678 40.1602 166.186 40.3672L168.102 43.9238V44H166.514L164.803 40.7129ZM163.151 39.5234H164.674C165.174 39.5234 165.565 39.3984 165.846 39.1484C166.128 38.8945 166.268 38.5488 166.268 38.1113C166.268 37.6543 166.137 37.3008 165.876 37.0508C165.618 36.8008 165.231 36.6719 164.715 36.6641H163.151V39.5234ZM171.859 35.4688L174.32 42.0078L176.775 35.4688H178.691V44H177.214V41.1875L177.361 37.4258L174.841 44H173.781L171.267 37.4316L171.413 41.1875V44H169.937V35.4688H171.859ZM183.854 40.9473H180.777V39.7988H183.854V40.9473ZM191.36 40.8945C191.36 41.875 191.137 42.6582 190.692 43.2441C190.247 43.8262 189.649 44.1172 188.899 44.1172C188.204 44.1172 187.647 43.8887 187.229 43.4316V46.4375H185.805V37.6602H187.118L187.177 38.3047C187.595 37.7969 188.163 37.543 188.882 37.543C189.655 37.543 190.261 37.832 190.698 38.4102C191.139 38.9844 191.36 39.7832 191.36 40.8066V40.8945ZM189.942 40.7715C189.942 40.1387 189.815 39.6367 189.561 39.2656C189.311 38.8945 188.952 38.709 188.483 38.709C187.901 38.709 187.483 38.9492 187.229 39.4297V42.2422C187.487 42.7344 187.909 42.9805 188.495 42.9805C188.948 42.9805 189.302 42.7988 189.555 42.4355C189.813 42.0684 189.942 41.5137 189.942 40.7715ZM196.142 44.1172C195.24 44.1172 194.507 43.834 193.945 43.2676C193.386 42.6973 193.107 41.9395 193.107 40.9941V40.8184C193.107 40.1855 193.228 39.6211 193.47 39.125C193.716 38.625 194.06 38.2363 194.501 37.959C194.943 37.6816 195.435 37.543 195.978 37.543C196.841 37.543 197.507 37.8184 197.976 38.3691C198.449 38.9199 198.685 39.6992 198.685 40.707V41.2812H194.542C194.585 41.8047 194.759 42.2188 195.064 42.5234C195.373 42.8281 195.759 42.9805 196.224 42.9805C196.876 42.9805 197.408 42.7168 197.818 42.1895L198.585 42.9219C198.332 43.3008 197.992 43.5957 197.566 43.8066C197.144 44.0137 196.669 44.1172 196.142 44.1172ZM195.972 38.6855C195.582 38.6855 195.265 38.8223 195.023 39.0957C194.785 39.3691 194.632 39.75 194.566 40.2383H197.279V40.1328C197.248 39.6562 197.121 39.2969 196.898 39.0547C196.675 38.8086 196.367 38.6855 195.972 38.6855ZM202.055 37.6602V42.8633H204.035V37.6602H205.459V42.8633H207.446V37.6602H208.864V44H200.631V37.6602H202.055ZM213.979 44.1172C213.077 44.1172 212.345 43.834 211.782 43.2676C211.224 42.6973 210.944 41.9395 210.944 40.9941V40.8184C210.944 40.1855 211.065 39.6211 211.308 39.125C211.554 38.625 211.897 38.2363 212.339 37.959C212.78 37.6816 213.272 37.543 213.815 37.543C214.679 37.543 215.345 37.8184 215.813 38.3691C216.286 38.9199 216.522 39.6992 216.522 40.707V41.2812H212.38C212.423 41.8047 212.597 42.2188 212.901 42.5234C213.21 42.8281 213.597 42.9805 214.061 42.9805C214.714 42.9805 215.245 42.7168 215.655 42.1895L216.423 42.9219C216.169 43.3008 215.829 43.5957 215.403 43.8066C214.981 44.0137 214.507 44.1172 213.979 44.1172ZM213.81 38.6855C213.419 38.6855 213.102 38.8223 212.86 39.0957C212.622 39.3691 212.47 39.75 212.403 40.2383H215.116V40.1328C215.085 39.6562 214.958 39.2969 214.735 39.0547C214.513 38.8086 214.204 38.6855 213.81 38.6855ZM223.783 44H222.359V41.4395H219.892V44H218.468V37.6602H219.892V40.3027H222.359V37.6602H223.783V44ZM230.041 37.6602H231.459V44H230.041V39.7695L227.557 44H226.139V37.6602H227.557V41.8906L230.041 37.6602ZM237.712 37.6602H239.13V44H237.712V39.7695L235.228 44H233.81V37.6602H235.228V41.8906L237.712 37.6602ZM238.38 35.2285C238.38 35.7207 238.208 36.1191 237.864 36.4238C237.521 36.7285 237.062 36.8809 236.487 36.8809C235.913 36.8809 235.454 36.7285 235.11 36.4238C234.767 36.1191 234.595 35.7207 234.595 35.2285H235.661C235.661 35.4863 235.734 35.6875 235.878 35.832C236.026 35.9727 236.23 36.043 236.487 36.043C236.745 36.043 236.946 35.9727 237.091 35.832C237.235 35.6875 237.308 35.4863 237.308 35.2285H238.38Z" fill="#676767"/>
<path fill-rule="evenodd" clip-rule="evenodd" d="M67.2646 5.55006L71.7054 5.22246V14.7593L71.487 21.3477H71.851L80.7326 5.36806H84.8458V28.3001H80.769V18.6541L80.9874 12.5025H80.6234L71.7054 28.4093L67.6286 28.2637V9.55406L67.2646 5.55006ZM90.9246 5.55006L95.4382 5.22246V15.0141L104.247 14.7229V9.44486L103.847 5.55006L108.397 5.22246V28.3001H104.247V18.5085L95.4382 18.3265V28.3001H91.2886V9.44486L90.9246 5.55006ZM114.439 5.36806H121.319L129.29 5.22246L128.744 9.15366L122.119 8.75326H118.953V28.3001H114.803V9.44486L114.439 5.36806ZM133.767 5.36806H141.666C146.289 5.36806 150.002 7.91606 150.002 12.9757C150.002 17.7441 146.835 20.8381 142.358 20.8381C140.829 20.8381 139.373 20.5833 138.281 20.1101V28.3001H134.131V9.66326L133.767 5.36806ZM138.281 8.78966V16.9433C139.373 17.2345 140.538 17.4165 141.775 17.4165C143.049 17.4165 144.178 17.0889 144.906 16.5793C145.525 15.6329 145.816 14.5045 145.816 13.0121C145.816 10.1729 144.214 8.78966 141.411 8.78966H138.281ZM152.841 5.51366L157.755 5.22246L159.065 9.77246L162.487 18.3265H162.851L165.727 10.1729L166.637 5.36806H171.223V5.91406L169.512 10.8281L164.926 21.4205L164.089 24.2961C163.251 27.0989 161.468 28.7733 158.592 28.7733C157.646 28.7733 156.517 28.5549 155.789 28.2273L156.335 24.8057C156.991 25.0241 157.537 25.1333 158.155 25.1333C158.738 25.1333 159.32 25.0241 159.83 24.8421C160.194 24.2961 160.485 23.5317 160.703 22.6581L152.841 6.05966V5.51366ZM175.191 5.36806H192.299V28.3001H188.185V8.82606H179.704V28.3001H175.555V9.33566L175.191 5.36806ZM198.377 5.36806H215.485V28.3001H211.372V8.82606H202.891V28.3001H198.741V9.33566L198.377 5.36806ZM226.806 5.55006L232.375 5.14966L239.837 27.7541V28.3001H235.141L234.559 24.8057L233.904 22.6945L225.787 22.5489L225.168 24.6601L224.877 28.3001H219.926V27.7541L226.515 8.82606L226.806 5.55006ZM229.609 9.66326L226.733 19.3821L232.885 19.1273L230.082 9.66326H229.609Z" fill="black"/>
<path d="M23.4 0H0V23.4H23.4V0Z" fill="#E43F6F"/>
<path d="M18.2 31.2H0V49.4H18.2V31.2Z" fill="#66A1D4"/>
<path d="M49.4 26H26V49.4H49.4V26Z" fill="#E43F6F"/>
<path d="M49.4 0H26V23.4H49.4V0Z" fill="#E43F6F"/>
</svg>
