<svg width="320" height="348" viewBox="0 0 320 348" fill="none" xmlns="http://www.w3.org/2000/svg">
<path d="M242 134V217L283.39 183.106L305.5 165V81L242 134Z" fill="url(#paint0_linear_679_9931)"/>
<path d="M305.5 192.442L242 245V328L305.5 275.5V192.442Z" fill="url(#paint1_linear_679_9931)"/>
<path d="M139 175.191V91.914L202.446 39.5V64.3808L158.5 99.8817V158.5L139 175.191Z" fill="#A12E52"/>
<path d="M242 217L181.5 192.442L158.5 210.5L242 245L305.5 192.442L283.39 183.106L242 217Z" fill="#C01A4A"/>
<path d="M56 58L139 91.914L202.446 39.5L120.5 6.5L56 58Z" fill="#DB2D5F"/>
<path d="M158.5 99.8817L242 134L305.5 81L223 47.777L202.446 64.3808L158.5 99.8817Z" fill="#DB2D5F"/>
<g filter="url(#filter0_i_679_9931)">
<path d="M56 141.5V58L139 91.914V175.191L56 141.5Z" fill="#EE5481"/>
<path d="M242 134V217L181.5 192.442L158.5 183.106V158.5V99.8817L242 134Z" fill="#EE5481"/>
<path d="M158.5 210.5V293.5L242 328V245L158.5 210.5Z" fill="#EE5481"/>
</g>
<g filter="url(#filter1_i_679_9931)">
<path d="M6.5 305V234.5L77 263V334L6.5 305Z" fill="#76B2E5"/>
</g>
<path d="M77 263V334L126 293V222L77 263Z" fill="url(#paint2_linear_679_9931)"/>
<path d="M6.5 234.5L77 263L126 222L56 194.5L6.5 234.5Z" fill="#5B90BE"/>
<defs>
<filter id="filter0_i_679_9931" x="55" y="58" width="187" height="271" filterUnits="userSpaceOnUse" color-interpolation-filters="sRGB">
<feFlood flood-opacity="0" result="BackgroundImageFix"/>
<feBlend mode="normal" in="SourceGraphic" in2="BackgroundImageFix" result="shape"/>
<feColorMatrix in="SourceAlpha" type="matrix" values="0 0 0 0 0 0 0 0 0 0 0 0 0 0 0 0 0 0 127 0" result="hardAlpha"/>
<feOffset dx="-1" dy="1"/>
<feGaussianBlur stdDeviation="1.5"/>
<feComposite in2="hardAlpha" operator="arithmetic" k2="-1" k3="1"/>
<feColorMatrix type="matrix" values="0 0 0 0 1 0 0 0 0 1 0 0 0 0 1 0 0 0 0.1 0"/>
<feBlend mode="normal" in2="shape" result="effect1_innerShadow_679_9931"/>
</filter>
<filter id="filter1_i_679_9931" x="5.5" y="234.5" width="71.5" height="100.5" filterUnits="userSpaceOnUse" color-interpolation-filters="sRGB">
<feFlood flood-opacity="0" result="BackgroundImageFix"/>
<feBlend mode="normal" in="SourceGraphic" in2="BackgroundImageFix" result="shape"/>
<feColorMatrix in="SourceAlpha" type="matrix" values="0 0 0 0 0 0 0 0 0 0 0 0 0 0 0 0 0 0 127 0" result="hardAlpha"/>
<feOffset dx="-1" dy="1"/>
<feGaussianBlur stdDeviation="1.5"/>
<feComposite in2="hardAlpha" operator="arithmetic" k2="-1" k3="1"/>
<feColorMatrix type="matrix" values="0 0 0 0 1 0 0 0 0 1 0 0 0 0 1 0 0 0 0.1 0"/>
<feBlend mode="normal" in2="shape" result="effect1_innerShadow_679_9931"/>
</filter>
<linearGradient id="paint0_linear_679_9931" x1="242" y1="197" x2="312" y2="199" gradientUnits="userSpaceOnUse">
<stop stop-color="#9C2E50"/>
<stop offset="1" stop-color="#9F2E52"/>
</linearGradient>
<linearGradient id="paint1_linear_679_9931" x1="242" y1="197" x2="312" y2="199" gradientUnits="userSpaceOnUse">
<stop stop-color="#9C2E50"/>
<stop offset="1" stop-color="#9F2E52"/>
</linearGradient>
<linearGradient id="paint2_linear_679_9931" x1="68.7273" y1="278.204" x2="121.695" y2="257.973" gradientUnits="userSpaceOnUse">
<stop stop-color="#467098"/>
<stop offset="1" stop-color="#2E4A65"/>
</linearGradient>
</defs>
</svg>
