<svg width="360" height="370" viewBox="0 0 360 370" fill="none" xmlns="http://www.w3.org/2000/svg">
<path d="M144.5 157.429V21.9292L160.5 33.5V155.73L176.5 169.82L163.5 171.185L162 171.342L144.5 157.429Z" fill="url(#paint0_linear_679_9866)"/>
<path d="M294.5 6V141.5L343.5 182V45.5L294.5 6Z" fill="#A12E52"/>
<path d="M294.5 292.5V157.429L325 182.994L343.5 198.5V332.5L294.5 292.5Z" fill="#A12E52"/>
<path d="M144.5 157.429L12 171.5L61.5 212L160.5 201.5V171.5L162 171.342L144.5 157.429Z" fill="url(#paint1_linear_679_9866)"/>
<path d="M294.5 141.5L160.5 155.73L176.5 169.82L294.5 157.429L325 182.994L343.5 182L294.5 141.5Z" fill="url(#paint2_linear_679_9866)"/>
<path d="M160.5 306.5L294.5 292.5L343.5 332.5L210 346.5L165 310.136L160.5 306.5Z" fill="#441322"/>
<g filter="url(#filter0_i_679_9866)">
<path d="M12 171.5V36L144.5 21.9292V157.429L12 171.5Z" fill="#ED4276"/>
<path d="M294.5 6V141.5L160.5 155.73V33.5V20.2301L294.5 6Z" fill="#ED4276"/>
<path d="M294.5 292.5V157.429L176.5 169.82L163.5 171.185L162 171.342L160.5 171.5V201.5V243V306.5L294.5 292.5Z" fill="#ED4276"/>
</g>
<path d="M126.5 322V216L160.5 243V306.5L165 310.136V353.5L126.5 322Z" fill="url(#paint3_linear_679_9866)"/>
<path d="M23 332.5L126.5 322L165 353.5L61.5 364L23 332.5Z" fill="#1E3040"/>
<g filter="url(#filter1_i_679_9866)">
<path d="M126.5 216L23 226.5V332.5L126.5 322V216Z" fill="#69A7E0"/>
</g>
<defs>
<filter id="filter0_i_679_9866" x="11" y="6" width="283.5" height="305.136" filterUnits="userSpaceOnUse" color-interpolation-filters="sRGB">
<feFlood flood-opacity="0" result="BackgroundImageFix"/>
<feBlend mode="normal" in="SourceGraphic" in2="BackgroundImageFix" result="shape"/>
<feColorMatrix in="SourceAlpha" type="matrix" values="0 0 0 0 0 0 0 0 0 0 0 0 0 0 0 0 0 0 127 0" result="hardAlpha"/>
<feOffset dx="-1" dy="1"/>
<feGaussianBlur stdDeviation="1.5"/>
<feComposite in2="hardAlpha" operator="arithmetic" k2="-1" k3="1"/>
<feColorMatrix type="matrix" values="0 0 0 0 1 0 0 0 0 1 0 0 0 0 1 0 0 0 0.1 0"/>
<feBlend mode="normal" in2="shape" result="effect1_innerShadow_679_9866"/>
</filter>
<filter id="filter1_i_679_9866" x="22" y="216" width="104.5" height="117.5" filterUnits="userSpaceOnUse" color-interpolation-filters="sRGB">
<feFlood flood-opacity="0" result="BackgroundImageFix"/>
<feBlend mode="normal" in="SourceGraphic" in2="BackgroundImageFix" result="shape"/>
<feColorMatrix in="SourceAlpha" type="matrix" values="0 0 0 0 0 0 0 0 0 0 0 0 0 0 0 0 0 0 127 0" result="hardAlpha"/>
<feOffset dx="-1" dy="1"/>
<feGaussianBlur stdDeviation="1.5"/>
<feComposite in2="hardAlpha" operator="arithmetic" k2="-1" k3="1"/>
<feColorMatrix type="matrix" values="0 0 0 0 1 0 0 0 0 1 0 0 0 0 1 0 0 0 0.1 0"/>
<feBlend mode="normal" in2="shape" result="effect1_innerShadow_679_9866"/>
</filter>
<linearGradient id="paint0_linear_679_9866" x1="144" y1="86" x2="160" y2="86" gradientUnits="userSpaceOnUse">
<stop stop-color="#A12E52"/>
<stop offset="1" stop-color="#71203A"/>
</linearGradient>
<linearGradient id="paint1_linear_679_9866" x1="177.75" y1="141.5" x2="177.75" y2="212" gradientUnits="userSpaceOnUse">
<stop stop-color="#441322"/>
<stop offset="1" stop-color="#60182E"/>
</linearGradient>
<linearGradient id="paint2_linear_679_9866" x1="177.75" y1="141.5" x2="177.75" y2="212" gradientUnits="userSpaceOnUse">
<stop stop-color="#441322"/>
<stop offset="1" stop-color="#60182E"/>
</linearGradient>
<linearGradient id="paint3_linear_679_9866" x1="120" y1="285" x2="165" y2="274" gradientUnits="userSpaceOnUse">
<stop stop-color="#467098"/>
<stop offset="1" stop-color="#2E4A65"/>
</linearGradient>
</defs>
</svg>
