<svg width="456" height="387" viewBox="0 0 456 387" fill="none" xmlns="http://www.w3.org/2000/svg">
<path d="M155.5 144.5L101 181L164.5 209.942L219.415 173.5L155.5 144.5Z" fill="#BA3860"/>
<path d="M178 216.095L243 245.721L298 209.156L233 179.664L219.415 188.662L178 216.095Z" fill="#BA3860"/>
<path d="M256.5 251.874L321.5 281.5L377 245L312 215.508L298 224.681L256.5 251.874Z" fill="#BA3860"/>
<path d="M377 314.5V245L321.5 281.5V352L377 314.5Z" fill="#6D2139"/>
<path d="M164.5 280.74V209.942L219.415 173.5V188.662L178 216.095V272L164.5 280.74Z" fill="#6D2139"/>
<path d="M243 316.37V245.721L298 209.156V224.681L256.5 251.874V307L243 316.37Z" fill="#6D2139"/>
<path d="M321.5 281.5V352L256.5 322.498V307V251.874L321.5 281.5Z" fill="#FB5B89"/>
<path d="M115.5 258.5L101 181L164.5 209.942V280.74L115.5 258.5Z" fill="#FB5B89"/>
<path d="M178 216.095L243 245.721V316.37L178 286.868V272V216.095Z" fill="#FB5B89"/>
<path d="M87 288.5L13.5 258.5L28.5 248.225L87 272.5L123.5 246.88L139 253L87 288.5Z" fill="url(#paint0_linear_679_9877)"/>
<path d="M87 194L13.5 163.5L28.3607 153.5L87 178L124.5 152.039L139 157.5L87 194Z" fill="url(#paint1_linear_679_9877)"/>
<path d="M87 100L14 69.5L65.5 33.5L139 63.5L87 100Z" fill="#D82C5D"/>
<path d="M139 63.5L87 100V178L124.5 152.038L139 142V63.5Z" fill="#5F1D31"/>
<path d="M87 366.5L139 330.5V253L87 288.5V366.5Z" fill="#5F1D31"/>
<path d="M87 272.5V194L139 157.5V236L124.5 246.178L123.5 246.88L87 272.5Z" fill="#5F1D31"/>
<path d="M14 147.5V69.5L87 100V178L28.3607 153.5L14 147.5Z" fill="#FF618F"/>
<path d="M13.5 337L87 366.5V288.5L13.5 258.5V337Z" fill="#FF618F"/>
<path d="M13.5 163.5V242L28.5 248.224L87 272.5V194L13.5 163.5Z" fill="#FF618F"/>
<path d="M128.5 316.5L168 333L195 313.5L157 297L128.5 316.5Z" fill="url(#paint2_linear_679_9877)"/>
<path d="M168 333V374.5L195 355V313.5L168 333Z" fill="#374E61"/>
<g filter="url(#filter0_i_679_9877)">
<path d="M128.5 358V316.5L168 333V374.5L128.5 358Z" fill="url(#paint3_linear_679_9877)"/>
</g>
<defs>
<filter id="filter0_i_679_9877" x="127.5" y="316.5" width="40.5" height="59" filterUnits="userSpaceOnUse" color-interpolation-filters="sRGB">
<feFlood flood-opacity="0" result="BackgroundImageFix"/>
<feBlend mode="normal" in="SourceGraphic" in2="BackgroundImageFix" result="shape"/>
<feColorMatrix in="SourceAlpha" type="matrix" values="0 0 0 0 0 0 0 0 0 0 0 0 0 0 0 0 0 0 127 0" result="hardAlpha"/>
<feOffset dx="-1" dy="1"/>
<feGaussianBlur stdDeviation="1.5"/>
<feComposite in2="hardAlpha" operator="arithmetic" k2="-1" k3="1"/>
<feColorMatrix type="matrix" values="0 0 0 0 1 0 0 0 0 1 0 0 0 0 1 0 0 0 0.1 0"/>
<feBlend mode="normal" in2="shape" result="effect1_innerShadow_679_9877"/>
</filter>
<linearGradient id="paint0_linear_679_9877" x1="54" y1="277.405" x2="66.1622" y2="254.293" gradientUnits="userSpaceOnUse">
<stop stop-color="#D82C5D"/>
<stop offset="1" stop-color="#952E51"/>
</linearGradient>
<linearGradient id="paint1_linear_679_9877" x1="54" y1="183" x2="66" y2="160" gradientUnits="userSpaceOnUse">
<stop stop-color="#D82C5D"/>
<stop offset="1" stop-color="#952E51"/>
</linearGradient>
<linearGradient id="paint2_linear_679_9877" x1="161.75" y1="297" x2="161.75" y2="333" gradientUnits="userSpaceOnUse">
<stop stop-color="#5980A3"/>
<stop offset="1" stop-color="#7BB0DE"/>
</linearGradient>
<linearGradient id="paint3_linear_679_9877" x1="129" y1="341" x2="168" y2="355" gradientUnits="userSpaceOnUse">
<stop stop-color="#90CBFF"/>
<stop offset="1" stop-color="#9EDFFF"/>
</linearGradient>
</defs>
</svg>
