<svg width="360" height="245" viewBox="0 0 360 245" fill="none" xmlns="http://www.w3.org/2000/svg">
<path d="M255.5 183.5L344.5 181L313 234L223.5 237.5L255.5 183.5Z" fill="#491424"/>
<path d="M217.5 92.4943L129 96L96.5 149L186 144.595L217.5 92.4943Z" fill="#491424"/>
<path d="M318.336 88.5L229.175 92.0318L215.088 115.266L201 138.5L198.087 144L201.404 155.5L201 154L232.044 102L310 98.9385L318.336 88.5Z" fill="#491424"/>
<path d="M129 95.9999L105 13.9999L73.5 66.9999L96.5 149L129 95.9999Z" fill="#831E3D"/>
<path d="M232.044 102L255.5 183.5L223.5 237.5L201.404 155.5L201 154L232.044 102Z" fill="#831E3D"/>
<path d="M217.5 92.4942L198.087 21.4999L205.5 9.76831L229.175 92.0317L201 138.5L198.087 144L186 144.595L217.5 92.4942Z" fill="#831E3D"/>
<path d="M255.5 183.5L344.5 181L321.164 98.5L232.044 102L255.5 183.5Z" fill="#F34479"/>
<path d="M295 6L205.5 9.76842L229.175 92.0318L318.336 88.5L295 6Z" fill="#F34479"/>
<path d="M195 10.2105L105 14L129 96L217.5 92.4943L198.087 21.5L195 10.2105Z" fill="#F34479"/>
<path d="M218.5 197.5L148.5 200.5L123.5 242L193.5 239L218.5 197.5Z" fill="#203345"/>
<path d="M130 135.5L105 177L123.5 242L148.5 200.5L130 135.5Z" fill="#376289"/>
<path d="M148.5 200.5L130 135.5L200 133L218.5 197.5L148.5 200.5Z" fill="#6BABE6"/>
</svg>
