<svg version="1.1" xmlns="http://www.w3.org/2000/svg" xmlns:xlink="http://www.w3.org/1999/xlink">

    <symbol viewBox="0 0 32 32" id="footer-social-yt">
        <path fill-rule="evenodd" clip-rule="evenodd" d="M16 32C24.8366 32 32 24.8366 32 16C32 7.16344 24.8366 0 16 0C7.16344 0 0 7.16344 0 16C0 24.8366 7.16344 32 16 32ZM27 15.9972C27 19.0689 26.7081 20.9571 26.0247 22.1282C25.3348 23.3778 24.527 23.7708 22.8783 23.8863C21.7149 23.9542 18.7946 24 16.0027 24C13.2044 24 10.2828 23.9543 9.1086 23.8855C7.47493 23.7708 6.66701 23.3784 5.97791 22.1424C5.29279 20.948 5 19.052 5 16.0084C5 12.9474 5.29138 11.0609 5.97193 9.8626C6.67011 8.61047 7.49112 8.21326 9.111 8.11849C10.2314 8.04251 12.9966 8 16.0027 8C19.0023 8 21.7662 8.04252 22.8783 8.1179C24.5073 8.21303 25.3281 8.60936 26.0202 9.85803C26.7108 11.0605 27 12.9378 27 15.9972ZM24.2833 10.8496C23.9603 10.265 23.7714 10.1735 22.7524 10.1139C21.6926 10.0421 18.9547 10 16.0027 10C13.0442 10 10.3051 10.0421 9.23709 10.1145C8.22844 10.1735 8.03675 10.2663 7.7149 10.8434C7.24754 11.6664 7 13.269 7 15.9972C7 18.727 7.24886 20.3385 7.71873 21.1578C8.03565 21.7262 8.22601 21.8186 9.23703 21.8897C10.3487 21.9547 13.2421 22 16.0027 22C18.757 22 21.6489 21.9547 22.7501 21.8904C23.7738 21.8187 23.9614 21.7274 24.2855 21.141C24.7522 20.3408 25 18.7383 25 16.0084C25 13.2577 24.7535 11.664 24.2833 10.8496ZM19 16L14 13V19L19 16Z" />
    </symbol>

    <symbol viewBox="0 0 32 32" id="footer-social-vk">
        <path d="M32 16C32 24.8366 24.8366 32 16 32C7.16344 32 0 24.8366 0 16C0 7.16344 7.16344 0 16 0C24.8366 0 32 7.16344 32 16Z" />
        <path d="M16.8038 22C10.6539 22 7.14616 17.4955 7 10H10.0806C10.1818 15.5015 12.4528 17.8318 14.2517 18.3123V10H17.1525V14.7447C18.9289 14.5405 20.795 12.3784 21.4246 10H24.3253C23.8419 12.9309 21.8181 15.0931 20.379 15.982C21.8181 16.7027 24.123 18.5886 25 22H21.8069C21.1211 19.7177 19.4123 17.952 17.1525 17.7117V22H16.8038Z" fill="#ffffff" />
    </symbol>

    <symbol viewBox="0 0 24 24" id="main-projects-item-link">
        <path fill-rule="evenodd" clip-rule="evenodd" d="M12 13V17L19 12L12 7V11H6V13H12Z" />
    </symbol>

    <symbol viewBox="0 0 18 18" id="main-widgets-item-type">
        <path d="M17.9995 0H9.46777V8.4827H17.9995V0Z" />
        <path d="M8.53175 0H0V8.4827H8.53175V0Z" />
        <path d="M7 11H0V18H7V11Z"  fill-opacity="0.51"/>
        <path d="M17.9995 9.41357H9.46777V17.8963H17.9995V9.41357Z" />
    </symbol>

    <symbol viewBox="0 0 24 25" id="project-header-back">
        <path fill-rule="evenodd" clip-rule="evenodd" d="M12 0.5C5.37258 0.499999 5.79387e-07 5.87258 0 12.5C-5.79387e-07 19.1274 5.37258 24.5 12 24.5C18.6274 24.5 24 19.1274 24 12.5C24 5.87258 18.6274 0.500001 12 0.5ZM12 7.5L12 11.5L18 11.5V13.5L12 13.5V17.5L5 12.5L12 7.5Z" />
    </symbol>

    <symbol viewBox="0 0 100 100" id="video-block-link">
        <path d="M46 59V43L58 51L46 59Z" />
    </symbol>

    <symbol viewBox="0 0 24 24" id="video-block-more">
        <circle cx="12" cy="12" r="12" fill="white" />
        <path fill-rule="evenodd" clip-rule="evenodd" d="M12.8534 13.0605L15.6819 15.889L17.0961 7.40369L8.6108 8.81791L11.4392 11.6463L7.19659 15.889L8.61081 17.3032L12.8534 13.0605Z" />
    </symbol>

    <symbol viewBox="0 0 24 24" id="video-block-more-gray">
        <circle cx="12" cy="12" r="12" fill="#EEF1F3" />
        <path fill-rule="evenodd" clip-rule="evenodd" d="M12.8534 13.0605L15.6819 15.889L17.0961 7.40369L8.6108 8.81791L11.4392 11.6463L7.19659 15.889L8.61081 17.3032L12.8534 13.0605Z" />
    </symbol>

    <symbol viewBox="0 0 25 24" id="rating-back">
        <path fill-rule="evenodd" clip-rule="evenodd" d="M12.5 1C12.8806 1 13.2283 1.21607 13.3967 1.55738L16.2543 7.34647L22.6447 8.28051C23.0212 8.33555 23.3339 8.59956 23.4513 8.96157C23.5687 9.32358 23.4704 9.72083 23.1978 9.98636L18.5746 14.4894L19.6656 20.851C19.73 21.2261 19.5757 21.6053 19.2678 21.8291C18.9598 22.0528 18.5515 22.0823 18.2146 21.9051L12.5 18.8998L6.78548 21.9051C6.44856 22.0823 6.04027 22.0528 5.7323 21.8291C5.42432 21.6053 5.27007 21.2261 5.33442 20.851L6.42551 14.4894L1.8023 9.98636C1.52968 9.72083 1.43141 9.32358 1.54878 8.96157C1.66616 8.59956 1.97884 8.33555 2.3554 8.28051L8.74577 7.34647L11.6033 1.55738C11.7718 1.21607 12.1194 1 12.5 1ZM12.5 4.25925L10.3067 8.70262C10.1612 8.99747 9.88001 9.20193 9.55466 9.24949L4.64844 9.9666L8.19776 13.4236C8.43364 13.6534 8.5413 13.9845 8.48564 14.309L7.64821 19.1917L12.0346 16.8849C12.326 16.7317 12.6741 16.7317 12.9655 16.8849L17.3518 19.1917L16.5144 14.309C16.4588 13.9845 16.5664 13.6534 16.8023 13.4236L20.3516 9.9666L15.4454 9.24949C15.12 9.20193 14.8389 8.99747 14.6933 8.70262L12.5 4.25925Z" />
    </symbol>

    <symbol viewBox="0 0 25 24" id="rating-front">
        <path fill-rule="evenodd" clip-rule="evenodd" d="M12.5 1C12.8806 1 13.2283 1.21607 13.3967 1.55738L16.2543 7.34647L22.6447 8.28051C23.0212 8.33555 23.3339 8.59956 23.4513 8.96157C23.5687 9.32358 23.4704 9.72083 23.1978 9.98636L18.5746 14.4894L19.6656 20.851C19.73 21.2261 19.5757 21.6053 19.2678 21.8291C18.9598 22.0528 18.5515 22.0823 18.2146 21.9051L12.5 18.8998L6.78548 21.9051C6.44856 22.0823 6.04027 22.0528 5.7323 21.8291C5.42432 21.6053 5.27007 21.2261 5.33442 20.851L6.42551 14.4894L1.8023 9.98636C1.52968 9.72083 1.43141 9.32358 1.54878 8.96157C1.66616 8.59956 1.97884 8.33555 2.3554 8.28051L8.74577 7.34647L11.6033 1.55738C11.7718 1.21607 12.1194 1 12.5 1Z" />
    </symbol>

    <symbol viewBox="0 0 49 48" id="slick-arrow">
        <path fill-rule="evenodd" clip-rule="evenodd" d="M25.5 25V29L32.5 24L25.5 19V23H19.5V25H25.5Z" />
    </symbol>

    <symbol viewBox="0 0 32 32" id="window-close">
        <rect x="3.625" y="25.7529" width="32" height="3" transform="rotate(-45 3.625 25.7529)" />
        <rect x="26.2539" y="27.8745" width="32" height="3" transform="rotate(-135 26.2539 27.8745)" />
    </symbol>

    <symbol viewBox="0 0 32 32" id="faq-item-open">
        <circle cx="16" cy="16" r="16" fill="#EEF1F3" />
        <path fill-rule="evenodd" clip-rule="evenodd" d="M15 17V22H17V17H22V15H17V10H15V15H10V17H15Z" />
    </symbol>

    <symbol viewBox="0 0 32 32" id="faq-item-close">
        <circle cx="16" cy="16" r="16" fill="#EEF1F3" />
        <rect x="10" y="15" width="12" height="2" />
    </symbol>

    <symbol viewBox="0 0 70 71" id="career-hh">
        <circle cx="34.9852" cy="35.335" r="24.7383" transform="rotate(-45 34.9852 35.335)" />
        <path fill-rule="evenodd" clip-rule="evenodd" d="M36.4428 36.7925L42.2737 42.6233L45.1891 25.1307L27.6965 28.0462L33.5274 33.877L24.7811 42.6233L27.6965 45.5388L36.4428 36.7925Z" fill="#E43F6F" />
    </symbol>

    <symbol viewBox="0 0 32 32" id="burger-link">
        <rect y="5" width="32" height="3" fill="#222222" />
        <rect y="14" width="32" height="3" fill="#222222" />
        <rect y="23" width="32" height="3" fill="#222222" />
    </symbol>

    <symbol viewBox="0 0 32 32" id="burger-close">
        <rect x="3.625" y="25.7529" width="32" height="3" transform="rotate(-45 3.625 25.7529)" fill="#222222" />
        <rect x="26.2539" y="27.8745" width="32" height="3" transform="rotate(-135 26.2539 27.8745)" fill="#222222" />
    </symbol>

</svg>