<svg width="48" height="48" viewBox="0 0 48 48" fill="none" xmlns="http://www.w3.org/2000/svg">
<circle cx="24" cy="24" r="24" fill="white"/>
<path d="M32.4022 15.0012L36.724 15.0012C37.0334 15.0011 37.3314 15.1183 37.5578 15.3293C37.7842 15.5402 37.9221 15.8292 37.9438 16.1378C37.9804 16.6719 38 17.1082 38 17.4455C38 28.2457 29.2452 37 18.4444 37C18.1071 37 17.6708 36.9817 17.1367 36.9438C16.828 36.9221 16.539 36.7842 16.3281 36.5578C16.1171 36.3314 15.9999 36.0335 16 35.7241L16 31.4025C15.9998 31.2509 16.0561 31.1047 16.1577 30.9922C16.2593 30.8797 16.3992 30.8091 16.55 30.7939C16.8311 30.7658 17.0548 30.7401 17.2247 30.7157C18.9198 30.4728 20.5685 29.9751 22.1148 29.2393C22.3592 29.1232 22.6513 29.199 22.8078 29.419L24.6924 32.0564C28.4501 30.4438 31.4447 27.4494 33.0573 23.692L30.4247 21.8098C30.3171 21.7329 30.24 21.6207 30.2067 21.4927C30.1734 21.3647 30.1861 21.2291 30.2426 21.1095C30.9769 19.5635 31.4735 17.9154 31.7153 16.2209C31.7398 16.0511 31.7667 15.8274 31.7936 15.5487C31.809 15.3981 31.8798 15.2586 31.9923 15.1572C32.1047 15.0558 32.2508 14.9998 32.4022 15L32.4022 15.0012Z" fill="#E43F6F"/>
<path d="M23.3004 18.9162C23.8004 18.8162 24.0004 18.3162 24.0004 17.8162C23.9004 17.2162 23.3004 16.9162 22.8004 17.0162C20.4004 17.4162 18.6004 19.3162 18.1004 21.7162C18.0004 22.3162 18.4004 22.8162 18.9004 22.9162C19.5004 23.0162 20.0004 22.6162 20.1004 22.1162C20.5004 20.5162 21.7004 19.2162 23.3004 18.9162Z" fill="#FFB3B3"/>
<path d="M23.3004 18.9162C23.8004 18.8162 24.0004 18.3162 24.0004 17.8162C23.9004 17.2162 23.3004 16.9162 22.8004 17.0162C20.4004 17.4162 18.6004 19.3162 18.1004 21.7162C18.0004 22.3162 18.4004 22.8162 18.9004 22.9162C19.5004 23.0162 20.0004 22.6162 20.1004 22.1162C20.5004 20.5162 21.7004 19.2162 23.3004 18.9162Z" fill="#FF8DB6"/>
<path d="M23.1 14.916C23.6 14.816 24 14.32 24 13.82C23.9 13.22 23.3 12.916 22.8 13.016C18.1 13.516 14.5 17.116 14 21.816C14 22.316 14.4 22.916 14.9 22.916C15.4 22.916 15.9 22.516 16 22.016C16.5 18.216 19.4 15.316 23.1 14.916Z" fill="#FFB3B3"/>
<path d="M23.1 14.916C23.6 14.816 24 14.32 24 13.82C23.9 13.22 23.3 12.916 22.8 13.016C18.1 13.516 14.5 17.116 14 21.816C14 22.316 14.4 22.916 14.9 22.916C15.4 22.916 15.9 22.516 16 22.016C16.5 18.216 19.4 15.316 23.1 14.916Z" fill="#FF8DB6"/>
</svg>
