<svg width="444" height="370" viewBox="0 0 444 370" fill="none" xmlns="http://www.w3.org/2000/svg">
<g clip-path="url(#clip0_501_29434)">
<path fill-rule="evenodd" clip-rule="evenodd" d="M434.252 312.4C433.405 314.361 434.094 312.658 433.936 312.916L390.011 406.953C388.742 409.895 380.255 409.299 370.761 405.43C361.268 401.562 354.688 396.114 355.957 393.172L389.923 295.158C389.873 294.951 389.185 296.654 390.031 294.693C390.877 292.732 402.693 291.649 414.87 296.63C427.204 301.353 435.098 310.44 434.252 312.4Z" fill="#D06F38"/>
<path fill-rule="evenodd" clip-rule="evenodd" d="M434.252 312.4C433.405 314.361 434.094 312.658 433.936 312.916L390.011 406.953C388.742 409.895 380.255 409.299 370.761 405.43C361.268 401.562 354.688 396.114 355.957 393.172L357.873 387.44C372.824 394.829 385.615 383.187 392.126 367.342C399.276 349.587 405.214 334.1 393.503 329.227C387.929 327.052 382.117 328.449 377.592 330.635L389.716 295.208C389.666 295 388.977 296.704 389.823 294.743C390.67 292.782 402.486 291.699 414.662 296.68C427.204 301.353 435.098 310.44 434.252 312.4Z" fill="#A3572C"/>
<path fill-rule="evenodd" clip-rule="evenodd" d="M456.285 268.879C456.543 269.037 456.543 269.037 456.8 269.195L495.55 290.634C498.491 291.904 497.897 300.394 494.032 309.891C490.167 319.388 484.722 325.969 481.782 324.699L439.059 313.221C438.852 313.271 438.594 313.114 438.594 313.114C434.724 311.628 435.549 300.445 440.525 288.265C445.244 275.927 452.415 267.393 456.285 268.879Z" fill="white"/>
<path fill-rule="evenodd" clip-rule="evenodd" d="M496.917 299.971C496.321 302.97 495.359 306.277 494.032 309.891C490.167 319.388 484.723 325.969 481.782 324.699L439.06 313.221C438.852 313.271 438.594 313.114 438.594 313.114C436.377 312.109 435.636 308.113 436.463 302.422C441.803 301.798 449.044 302.693 458.796 306.719C487.742 318.433 496.967 300.179 496.917 299.971Z" fill="#D0C6C6"/>
<path fill-rule="evenodd" clip-rule="evenodd" d="M388.295 210.754C388.761 210.862 389.068 211.227 389.326 211.385L473.985 258.473C480.539 261.071 478.92 279.913 470.709 300.56C462.291 321.257 450.406 335.757 443.853 333.158L350.401 307.955C349.936 307.847 349.471 307.739 349.213 307.581C340.7 304.136 342.731 279.703 353.688 253.124C364.337 226.179 379.782 207.308 388.295 210.754Z" fill="#FF9D67"/>
<path fill-rule="evenodd" clip-rule="evenodd" d="M472.459 295.965C471.929 297.411 471.398 298.857 470.659 300.352C462.241 321.049 450.356 335.549 443.803 332.951L350.351 307.747C349.886 307.639 349.421 307.531 349.164 307.374C340.65 303.928 342.681 279.495 353.638 252.916C363.696 257.308 381.964 270.271 381.964 270.271C378.472 278.58 380.561 288.182 384.839 290.449C389.116 292.716 423.228 305.824 442.886 308.128C462.335 310.482 472.302 296.223 472.459 295.965Z" fill="#DA763E"/>
<path fill-rule="evenodd" clip-rule="evenodd" d="M472.459 295.965C471.929 297.411 471.398 298.857 470.659 300.352C462.241 321.049 450.356 335.549 443.803 332.951L350.351 307.747C349.886 307.639 349.421 307.531 349.164 307.374C340.65 303.928 342.681 279.495 353.638 252.916C363.696 257.308 381.964 270.271 381.964 270.271C378.472 278.58 380.561 288.182 384.839 290.449C389.116 292.716 423.228 305.824 442.886 308.128C462.335 310.482 472.302 296.223 472.459 295.965Z" fill="#D2713A"/>
<path fill-rule="evenodd" clip-rule="evenodd" d="M472.459 295.965C471.929 297.411 471.398 298.857 470.659 300.352C462.241 321.049 450.356 335.549 443.803 332.951L350.351 307.747C349.886 307.639 349.421 307.531 349.164 307.374C340.65 303.928 342.681 279.495 353.638 252.916C363.696 257.308 381.964 270.271 381.964 270.271C378.472 278.58 380.561 288.182 384.839 290.449C389.116 292.716 423.228 305.824 442.886 308.128C462.335 310.482 472.302 296.223 472.459 295.965Z" fill="#D2713A"/>
<path fill-rule="evenodd" clip-rule="evenodd" d="M388.088 210.804C396.394 214.299 394.52 238.474 383.821 265.211C373.072 291.74 357.419 310.661 349.113 307.166C340.807 303.671 342.68 279.495 353.38 252.758C364.129 226.229 379.832 207.516 388.088 210.804Z" fill="#DA763E"/>
<path fill-rule="evenodd" clip-rule="evenodd" d="M388.088 210.804C396.394 214.299 394.52 238.474 383.821 265.211C373.072 291.74 357.419 310.661 349.113 307.166C340.807 303.671 342.68 279.495 353.38 252.758C364.129 226.229 379.832 207.516 388.088 210.804Z" fill="#A3572C"/>
<path fill-rule="evenodd" clip-rule="evenodd" d="M388.088 210.804C396.394 214.299 394.52 238.474 383.821 265.211C373.072 291.74 357.419 310.661 349.113 307.166C340.807 303.671 342.68 279.495 353.38 252.758C364.129 226.229 379.832 207.516 388.088 210.804Z" fill="#B66538"/>
<path fill-rule="evenodd" clip-rule="evenodd" d="M377.488 220.601C377.488 220.601 302.737 159.927 283.415 96.9116L227.849 91.378L150.804 281.469L194.509 316.216C252.325 284.522 348.102 292.91 348.102 292.91C355.635 295.932 368.134 282.163 376.288 262.189C384.441 242.216 384.814 223.673 377.488 220.601Z" fill="#FFB186"/>
<path fill-rule="evenodd" clip-rule="evenodd" d="M185.067 196.564L150.804 281.469L194.509 316.216C252.324 284.522 348.101 292.91 348.101 292.91C355.635 295.932 368.134 282.163 376.288 262.189C377.399 259.506 378.303 256.872 379.207 254.238C379.049 254.496 371.408 269.294 347.957 268.561C324.297 267.878 275.623 261.786 261.513 258.808C247.353 255.622 244.78 242.181 250.119 224.202C253.527 213.716 218.054 202.254 185.067 196.564Z" fill="#FB9861"/>
<path fill-rule="evenodd" clip-rule="evenodd" d="M259.393 49.9639C226.784 36.7143 174.153 90.8865 141.798 170.939C109.442 250.992 109.388 326.574 141.997 339.824C174.606 353.074 227.236 298.901 259.592 218.849C291.898 138.588 291.745 63.0557 259.393 49.9639Z" fill="#FB9861"/>
<path fill-rule="evenodd" clip-rule="evenodd" d="M250.822 64.5463C226.469 54.5841 183.403 104.699 154.439 176.028C125.526 247.565 121.572 313.32 145.925 323.283C170.228 333.037 213.344 283.129 242.257 211.593C271.221 140.264 274.917 74.3506 250.822 64.5463Z" fill="#FFB186"/>
<path fill-rule="evenodd" clip-rule="evenodd" d="M167.497 319.854C191.025 306.289 220.601 264.909 242.257 211.593C263.914 158.277 271.404 108.147 263.768 81.8639C240.241 95.4285 210.665 136.809 189.008 190.125C167.352 243.441 159.911 293.778 167.497 319.854Z" fill="#DA763E"/>
<path fill-rule="evenodd" clip-rule="evenodd" d="M167.497 319.854C191.025 306.289 220.601 264.909 242.257 211.593C263.914 158.277 271.404 108.147 263.768 81.8639C240.241 95.4285 210.665 136.809 189.008 190.125C167.352 243.441 159.911 293.778 167.497 319.854Z" fill="url(#paint0_linear_501_29434)"/>
<path fill-rule="evenodd" clip-rule="evenodd" d="M208.931 156.997L254.265 177.512C250.8 188.67 246.761 200.185 242.1 211.85C238.658 220.367 235.116 228.468 231.266 236.203L184.537 215.364C146.835 198.286 170.814 140.019 208.931 156.997Z" fill="#FEDECC"/>
<path fill-rule="evenodd" clip-rule="evenodd" d="M231.474 236.153L184.744 215.314C161.844 205.003 161.55 180.03 173.127 165.165C172.654 165.938 164.259 183.992 194.088 201.206C215.727 213.578 233.455 211.512 244.008 206.998C243.319 208.702 242.788 210.147 242.1 211.85C238.816 220.109 235.066 228.26 231.474 236.153Z" fill="#FFCFB5"/>
</g>
<defs>
<linearGradient id="paint0_linear_501_29434" x1="257" y1="81.9998" x2="119" y2="433" gradientUnits="userSpaceOnUse">
<stop stop-color="#DA763E"/>
<stop offset="0.573453" stop-color="#D1713B"/>
<stop offset="0.816182" stop-color="#C16836"/>
<stop offset="1" stop-color="#A3572C"/>
</linearGradient>
<clipPath id="clip0_501_29434">
<rect width="369.989" height="384.039" fill="white" transform="translate(68 90.4849) rotate(-13.5179)"/>
</clipPath>
</defs>
</svg>
