<svg width="48" height="48" viewBox="0 0 48 48" fill="none" xmlns="http://www.w3.org/2000/svg">
<circle cx="24" cy="24" r="24" fill="white"/>
<g clip-path="url(#clip0_574_8604)">
<path d="M32.4783 28.1997C31.067 29.6174 29.5833 30.7033 28.3733 31.47C26.9806 32.3521 25.7653 32.9387 25.0254 33.2635L27.4794 39.8625C27.6777 40.3956 28.0376 40.412 28.2835 39.8986L33.0183 30.0156C33.1785 29.6824 33.1696 29.4247 32.9874 29.1028L32.4783 28.1997Z" fill="#E85881"/>
<path d="M35.9079 10.4633C35.8927 10.2934 35.8522 10.0896 35.7282 9.99635C35.6043 9.90287 35.3966 9.9197 35.2294 9.95109C34.2579 10.1344 32.2364 10.5977 29.9639 11.601L35.7694 15.9799C36.1087 13.5187 35.9986 11.447 35.9079 10.4633L35.9079 10.4633Z" fill="#E85881"/>
<path d="M23.7634 15.848C23.7634 15.848 23.7634 15.848 23.7634 15.848C19.7606 20.088 18.7491 25.9285 18.5264 27.7102C18.4844 28.0462 18.6329 28.3706 18.9032 28.5745L22.4866 31.2775C22.7569 31.4814 23.1097 31.5351 23.4212 31.4023C25.0732 30.6985 30.4106 28.1208 33.3883 23.1067C34.4283 21.3554 35.0691 19.4937 35.4559 17.7365C35.5378 17.3645 35.3883 16.9821 35.0843 16.7528L29.4073 12.4715C29.1034 12.2423 28.6947 12.2037 28.3597 12.3845C26.7758 13.2392 25.1618 14.367 23.7635 15.848C23.7635 15.848 23.7634 15.848 23.7634 15.848ZM31.1945 19.8285C31.1945 21.4207 29.9035 22.7118 28.311 22.7118C26.7184 22.7118 25.4276 21.4207 25.4276 19.8285C25.4276 18.2359 26.7186 16.9453 28.311 16.9453C29.9035 16.9453 31.1945 18.2359 31.1945 19.8285Z" fill="#FF8DB6"/>
<path d="M17.3376 22.6546C17.7426 21.2805 18.3786 19.5555 19.3539 17.8091L18.3445 17.5669C17.9849 17.4809 17.7354 17.543 17.4586 17.7882L9.25717 25.0562C8.8316 25.4336 8.94601 25.775 9.51305 25.8195L16.5324 26.3661C16.6418 25.5652 16.872 24.236 17.3374 22.6548L17.3376 22.6546Z" fill="#E85881"/>
<path fill-rule="evenodd" clip-rule="evenodd" d="M15.6926 29.6128C15.2561 29.2744 14.628 29.3538 14.2895 29.7902L13.0639 31.3707C12.7255 31.8071 12.8049 32.4353 13.2414 32.7737C13.6778 33.1122 14.306 33.0327 14.6444 32.5963L15.87 31.0158C16.2085 30.5794 16.129 29.9512 15.6926 29.6128ZM17.4505 32.2415C17.7889 31.805 18.4171 31.7256 18.8535 32.064C19.29 32.4025 19.3694 33.0306 19.0309 33.4671L15.3541 38.2085C15.0157 38.6449 14.3875 38.7243 13.9511 38.3859C13.5146 38.0475 13.4352 37.4193 13.7737 36.9829L17.4505 32.2415ZM20.6114 34.6927C20.9499 34.2562 21.578 34.1768 22.0145 34.5152C22.4509 34.8537 22.5303 35.4818 22.1919 35.9183L20.9663 37.4987C20.6278 37.9352 19.9997 38.0146 19.5632 37.6762C19.1268 37.3377 19.0474 36.7096 19.3858 36.2731L20.6114 34.6927Z" fill="#FF8DB6"/>
</g>
<defs>
<clipPath id="clip0_574_8604">
<rect width="30" height="33" fill="white" transform="translate(8 8)"/>
</clipPath>
</defs>
</svg>
