<svg width="444" height="370" viewBox="0 0 444 370" fill="none" xmlns="http://www.w3.org/2000/svg">
<g clip-path="url(#clip0_501_29350)">
<path d="M261.2 187.187C263.108 187.187 264.976 187.108 266.805 186.988C268.315 186.909 269.905 186.829 271.415 186.829C271.932 186.829 272.369 186.391 272.369 185.834C272.369 185.317 271.932 184.879 271.415 184.879C269.865 184.919 268.275 184.998 266.725 185.078C255.199 185.675 243.314 186.272 231.708 163.944C226.661 154.233 221.176 135.407 222.328 114.153C223.203 96.7607 229.085 72.0446 251.9 52.9404C252.297 52.5822 252.377 51.9852 252.019 51.5872C251.661 51.1892 251.065 51.1096 250.668 51.4678C227.336 71.0098 221.335 96.2831 220.381 114.034C219.228 135.646 224.832 154.909 229.999 164.819C240.214 184.521 251.105 187.187 261.2 187.187Z" fill="#0A5E3F"/>
<path d="M264.817 182.61C265.254 182.61 265.731 182.61 266.168 182.57C266.685 182.531 267.122 182.093 267.082 181.536C267.043 181.018 266.605 180.58 266.049 180.62C265.652 180.66 265.214 180.66 264.817 180.66C252.813 180.66 241.684 172.143 234.212 157.098C221.891 132.342 220.698 91.7458 242.758 65.2387C243.115 64.8407 243.036 64.2039 242.638 63.8855C242.241 63.5273 241.605 63.6069 241.287 64.0049C218.711 91.1488 219.903 132.7 232.503 157.974C240.293 173.695 252.019 182.61 264.817 182.61Z" fill="#0A5E3F"/>
<path d="M307.902 58.9502C273.124 31.9257 240.492 46.2539 228.767 82.8305C217.836 116.979 231.827 190.411 283.697 177.635C337.354 164.382 341.846 147.944 341.409 124.024C341.13 104.92 332.982 78.4126 307.902 58.9502Z" fill="#0A5E3F"/>
<path d="M325.987 167.287L375.67 185.874C375.67 185.874 361.759 286.967 360.566 325.573C359.374 364.18 378.85 397.692 378.85 397.692H248.878C248.878 397.692 230.992 292.539 234.57 255.525C238.147 218.51 262.79 180.143 263.982 179.227C265.174 178.312 294.984 171.546 294.984 171.546L325.987 167.287Z" fill="#346956"/>
<path d="M238.545 291.743C238.545 291.743 233.537 338.708 231.47 341.096C229.403 343.484 153.09 380.896 153.09 380.896L263.982 388.458L238.545 291.743Z" fill="#40B088"/>
<path d="M263.982 179.227C251.661 179.506 248.322 199.685 245.421 214.65C242.519 229.654 263.982 179.227 263.982 179.227Z" fill="#40B088"/>
<path d="M285.048 259.107C291.805 234.828 328.093 167.207 328.093 167.207L375.67 185.874C375.67 185.874 364.779 265.117 361.441 310.051L343.356 397.652H285.048C285.048 397.652 278.291 283.385 285.048 259.107Z" fill="url(#paint0_linear_501_29350)"/>
<path d="M325.391 367.762C334.135 355.901 342.681 342.847 334.374 315.623C326.027 288.4 325.232 278.609 328.133 253.933C331.035 229.256 344.31 189.854 370.145 188.66C370.145 188.66 370.98 197.297 372.371 211.068C368.158 243.624 361.401 299.186 360.606 325.573C359.414 364.18 378.89 397.692 378.89 397.692L273.164 400C273.124 400 316.647 379.583 325.391 367.762Z" fill="url(#paint1_linear_501_29350)"/>
<path d="M234.57 255.525C238.147 218.51 262.79 180.143 263.982 179.227C264.738 178.67 276.383 175.844 285.207 173.814C282.624 179.944 255.318 245.097 256.431 271.922C257.623 300.101 256.391 397.652 256.391 397.652H248.879C248.879 397.652 230.993 292.539 234.57 255.525Z" fill="url(#paint2_linear_501_29350)"/>
<path d="M60.5997 392.119H183.218L131.15 277.375C129.639 274.032 126.301 271.882 122.604 271.882H11.6717C9.00864 271.882 7.25979 274.629 8.33294 277.056L60.5997 392.119Z" fill="#40B088"/>
<path d="M11.6719 271.922H112.946C116.603 271.922 119.941 274.071 121.492 277.415L173.56 392.159H60.5999L8.37293 277.096C7.26003 274.668 9.04859 271.922 11.6719 271.922Z" fill="#5ECAA3"/>
<path d="M69.7816 335.802C74.0742 344.717 81.0299 350.249 85.3225 348.18C89.6151 346.11 89.6151 337.195 85.3225 328.28C81.0299 319.364 74.0742 313.832 69.7816 315.902C65.489 317.971 65.489 326.887 69.7816 335.802Z" fill="#0A5D3F"/>
<path d="M304.048 104.681C304.048 104.681 314.461 157.934 325.988 167.287C337.514 176.64 299.477 221.614 286.321 210.112C273.164 198.57 285.406 173.336 285.406 173.336C285.406 173.336 292.521 168.958 280.478 140.939C268.395 112.919 300.908 92.0639 300.908 92.0639L304.048 104.681Z" fill="#C5F4E3"/>
<path d="M300.867 92.0639L304.047 104.681C304.047 104.681 305.478 112.084 307.902 121.874C303.411 142.889 294.985 156.58 287.473 165.297C287.234 160.441 285.605 152.799 280.477 140.939C268.394 112.919 300.867 92.0639 300.867 92.0639Z" fill="#AAE8D2"/>
<path d="M238.147 124.979C245.143 144.322 262.274 159.844 273.124 156.262C290.891 150.411 303.809 136.521 300.748 105.795C297.171 69.6165 269.349 65.4772 253.052 70.0941C236.717 74.7109 230.397 103.566 238.147 124.979Z" fill="#C5F4E3"/>
<path d="M328.134 167.207L344.907 173.774L318.436 207.724L325.988 221.256C325.988 221.256 298.722 241.753 290.454 281.434C282.187 321.115 283.062 354.946 283.062 354.946C283.062 354.946 281.035 274.43 285.049 259.027C292.839 229.256 328.134 167.207 328.134 167.207Z" fill="#40B088"/>
<path d="M285.207 173.774C285.207 173.774 264.261 227.624 260.922 242.788C257.583 257.952 256.907 332.021 256.907 332.021C256.907 332.021 247.289 267.464 250.071 248.36C252.853 229.256 256.828 211.983 256.828 211.983L269.547 202.59C269.547 202.59 271.932 176.958 273.323 176.64C274.674 176.282 285.207 173.774 285.207 173.774Z" fill="#40B088"/>
<path d="M297.45 371.264C256.71 358.886 261.638 352.717 246.813 359.722C231.987 366.727 213.426 371.503 222.13 373.732C230.835 376 243.951 368.796 243.951 368.796C243.951 368.796 241.884 379.941 249.317 383.204C256.71 386.508 289.62 387.702 307.943 382.567C326.226 377.433 297.45 371.264 297.45 371.264Z" fill="#C4F4E3"/>
<path d="M298.562 369.354H290.454L294.508 392.438C294.508 392.438 310.486 390.05 309.294 388.458C308.101 386.866 298.562 369.354 298.562 369.354Z" fill="#A2DFF2"/>
<path d="M375.671 185.874C391.569 213.734 396.617 228.938 409.574 281.076C422.532 333.215 427.739 356.936 413.43 363.782C401.585 369.433 315.375 395.343 304.922 392.159C300.152 392.438 292.839 367.762 292.839 367.762L371.299 332.737C371.299 332.737 348.603 278.449 344.668 242.788C340.733 207.127 358.182 185.874 366.926 185.874C375.671 185.874 375.671 185.874 375.671 185.874Z" fill="#5ECAA3"/>
<path d="M293.316 108.183C297.171 120.243 295.502 122.71 300.828 123.825C306.154 124.939 311.003 119.685 312.553 112.243C314.143 104.84 311.083 97.9146 305.757 96.7604C300.431 95.6858 291.011 100.979 293.316 108.183Z" fill="#C5F4E3"/>
<path d="M230.835 86.2133C251.622 123.228 292.958 117.775 318.038 105.039C338.508 94.6908 259.651 55.3679 259.651 55.3679L230.835 86.2133Z" fill="#0A5E3F"/>
<path d="M298.562 55.3679C306.273 32.0847 337.872 37.5771 352.18 68.5817C366.489 99.5464 344.589 120.282 331.313 112.681C318.038 105.079 298.562 55.3679 298.562 55.3679Z" fill="#0A5E3F"/>
</g>
<defs>
<linearGradient id="paint0_linear_501_29350" x1="328.857" y1="167.207" x2="309" y2="846" gradientUnits="userSpaceOnUse">
<stop stop-color="#5ECAA3"/>
<stop offset="1" stop-color="#24966D"/>
</linearGradient>
<linearGradient id="paint1_linear_501_29350" x1="336" y1="210" x2="339" y2="420" gradientUnits="userSpaceOnUse">
<stop stop-color="#40B088"/>
<stop offset="1" stop-color="#0D8056"/>
</linearGradient>
<linearGradient id="paint2_linear_501_29350" x1="259.652" y1="173.814" x2="225.395" y2="831.927" gradientUnits="userSpaceOnUse">
<stop stop-color="#5ECAA3"/>
<stop offset="0.5432" stop-color="#4FBC95"/>
<stop offset="1" stop-color="#24966D"/>
</linearGradient>
<clipPath id="clip0_501_29350">
<rect width="444" height="370" fill="white"/>
</clipPath>
</defs>
</svg>
