<svg width="489" height="370" viewBox="0 0 489 370" fill="none" xmlns="http://www.w3.org/2000/svg">
<g clip-path="url(#clip0_501_29619)">
<path d="M234.999 156C314 168 344 79.0002 344 18.0001C408.644 67.6013 415 135 377 272" stroke="url(#paint0_linear_501_29619)" stroke-width="11" stroke-linejoin="round"/>
<path d="M118.052 158.004C90.815 196.116 100.436 241.136 133.759 272.147C137.711 275.691 141.664 279.236 145.957 282.304C188.408 312.641 241.476 310.982 271.777 268.583C287.779 246.192 297.5 220.5 287.352 193.348C283.94 177.955 256.74 156.798 242.5 149.5C236.095 146.362 244.285 156.813 238.561 152.722C234.268 149.655 229.839 145.769 225.887 142.225C216.074 133.773 201.287 131.754 190.999 128C186.503 126.226 187.457 118.36 181.735 119.308C156.734 123.033 133.713 136.089 118.052 158.004Z" fill="#B51F18"/>
<path d="M118.052 158.003C90.8157 196.116 100.436 241.136 133.76 272.147C138.393 274.738 143.367 276.853 148.34 278.968C184.178 292.345 222.665 283.864 246.498 250.516C262.499 228.125 267.599 200.822 262.072 175.281C261.186 172.489 260.776 170.037 259.549 167.721C258.936 166.562 257 161.5 254 158C254 158 250 153.5 245 150.5C239.999 147.5 230.5 145 227.182 142.43C223.864 139.86 209 124.874 199.244 121.025C194.747 119.251 187.722 117.051 182 118C154.888 121.655 133.714 136.089 118.052 158.003Z" fill="#DF5249"/>
<path d="M258.762 258.562C231.525 296.674 241.146 341.694 274.469 372.705C278.422 376.249 282.374 379.794 286.667 382.862C329.118 413.199 382.527 411.064 412.828 368.664C428.829 346.273 433.929 318.97 428.403 293.43C424.991 278.037 412.045 270.944 397.805 263.646C391.4 260.508 385.336 256.894 379.612 252.804C375.319 249.736 370.89 245.851 366.938 242.307C357.125 233.855 348.47 224.791 338.182 221.037C333.685 219.263 328.508 218.441 322.785 219.39C297.922 223.932 274.423 236.647 258.762 258.562Z" fill="#B51F18"/>
<path d="M258.763 258.562C231.526 296.674 241.147 341.694 274.47 372.705C279.103 375.297 284.077 377.412 289.051 379.527C325.229 392.427 363.376 384.422 387.548 350.598C403.55 328.207 408.65 300.904 403.123 275.363C402.236 272.571 401.827 270.119 400.6 267.802C399.986 266.644 398.896 265.145 398.282 263.987C396.034 263.1 394.603 262.077 392.695 260.714C391.741 260.032 390.787 259.35 389.493 259.145C389.016 258.804 388.539 258.463 388.062 258.122C387.108 257.441 386.154 256.759 385.2 256.077L384.723 255.736C384.246 255.395 383.769 255.055 382.815 254.373C381.861 253.691 381.384 253.35 380.43 252.668C379.953 252.328 378.999 251.646 378.522 251.305C374.706 248.578 371.231 245.375 368.232 242.512C365.507 241.284 363.599 239.921 361.214 238.216C359.306 236.853 357.875 235.83 355.967 234.467C350.244 230.376 344.86 225.809 340.294 221.107C335.798 219.333 330.62 218.511 324.898 219.46C297.922 223.932 274.424 236.647 258.763 258.562Z" fill="#DF5249"/>
<path d="M259.052 258.003C231.816 296.115 241.436 341.135 274.76 372.147C279.393 374.738 284.367 376.853 289.34 378.968C325.178 392.345 363.665 383.864 387.498 350.516C403.499 328.125 408.599 300.822 403.072 275.281C402.186 272.488 401.776 270.037 400.549 267.72C399.936 266.562 398 261.5 395 258C395 258 391 253.5 386 250.5C380.999 247.499 371.5 245 368.182 242.43C364.864 239.86 350 224.874 340.244 221.025C335.747 219.25 328.722 217.051 323 218C295.888 221.655 274.714 236.089 259.052 258.003Z" fill="#DF5249"/>
<path d="M298.812 236.803C316.588 225.037 339.411 228.392 349.635 244.335C359.859 260.279 348.553 268.032 330.776 279.799C313 291.565 295.904 302.378 285.68 286.435C275.116 270.969 281.035 248.57 298.812 236.803Z" fill="#FF9F96"/>
<path d="M159.26 135.633C177.036 123.867 199.859 127.222 210.083 143.166C220.307 159.109 209.001 166.862 191.225 178.629C173.448 190.395 156.353 201.209 146.129 185.265C135.564 169.799 141.483 147.4 159.26 135.633Z" fill="#FF9F96"/>
</g>
<defs>
<linearGradient id="paint0_linear_501_29619" x1="442.18" y1="-45.5304" x2="334.87" y2="277.697" gradientUnits="userSpaceOnUse">
<stop stop-color="#AA231C" stop-opacity="0"/>
<stop offset="1" stop-color="#8B1611"/>
</linearGradient>
<clipPath id="clip0_501_29619">
<rect width="446.735" height="517.452" fill="white" transform="matrix(-0.813595 -0.581433 -0.581433 0.813595 664.325 16.7463)"/>
</clipPath>
</defs>
</svg>
