<svg width="48" height="48" viewBox="0 0 48 48" fill="none" xmlns="http://www.w3.org/2000/svg">
<circle cx="24" cy="24" r="24" fill="white"/>
<path d="M11 16C11 13.7909 12.7909 12 15 12H33C35.2091 12 37 13.7909 37 16V34C37 36.2091 35.2091 38 33 38H15C12.7909 38 11 36.2091 11 34V16Z" fill="#FFD1DF"/>
<path d="M11 16C11 13.7909 12.7909 12 15 12H33C35.2091 12 37 13.7909 37 16V18H11V16Z" fill="#E67474"/>
<path d="M11 16C11 13.7909 12.7909 12 15 12H33C35.2091 12 37 13.7909 37 16V18H11V16Z" fill="#E85881"/>
<rect x="15" y="22" width="16" height="3" rx="1.5" fill="#E85881"/>
<rect x="15" y="28" width="10" height="3" rx="1.5" fill="#E85881"/>
</svg>
