<svg width="48" height="48" viewBox="0 0 48 48" fill="none" xmlns="http://www.w3.org/2000/svg">
<circle cx="24" cy="24" r="24" fill="white"/>
<path d="M16.0723 31.6678C16.2833 31.8804 16.5707 32 16.8701 32C17.1695 32 17.4569 31.8804 17.6679 31.6678C17.8804 31.4567 18 31.1697 18 30.8698C18 30.5704 17.8804 30.2833 17.6679 30.0723L15.0839 27.4989L17.6675 24.9259H17.6679C18.1083 24.4854 18.1083 23.7709 17.6679 23.3304C17.227 22.8899 16.5132 22.8899 16.0724 23.3304L13.5 25.9147L10.9276 23.3304C10.4868 22.8899 9.77292 22.8899 9.33211 23.3304C8.89167 23.771 8.89167 24.4854 9.33211 24.9259L11.9161 27.4989L9.3325 30.0719L9.33212 30.0722C9.11961 30.2833 9 30.5704 9 30.8698C9 31.1697 9.11961 31.4567 9.33212 31.6678C9.54313 31.8804 9.83049 32 10.1299 32C10.4293 32 10.7167 31.8804 10.9277 31.6678L13.5 29.0835L16.0723 31.6678Z" fill="#FF8DB6"/>
<path d="M18.8214 11.0007C15.6193 11.0007 12.946 13.6425 12.3705 17.1251C12.2434 17.8941 12.8877 18.5306 13.6671 18.5306C14.4465 18.5306 15.0593 17.8894 15.2469 17.1329C15.7216 15.2186 17.1446 13.8249 18.8219 13.8249C20.8655 13.8249 22.592 15.994 22.592 18.5616L22.5918 31.5026C22.5918 35.6368 25.5254 39 29.1298 39C32.3321 39 35.0053 36.3582 35.5807 32.8759C35.7077 32.1071 35.0637 31.4708 34.2845 31.4708C33.5053 31.4708 32.8926 32.1118 32.7052 32.8681C32.2306 34.7826 30.8076 36.1765 29.1298 36.1765C27.081 36.1765 25.4146 34.0796 25.4146 31.5028V18.5611C25.4143 14.3927 22.4563 11.0007 18.8214 11.0007Z" fill="#FF8DB6"/>
<path d="M34.4998 14C32.7759 14 31.1227 14.6742 29.9039 15.8747C28.6848 17.0747 28 18.7025 28 20.3999C28 23.9315 34.4998 30 34.4998 30C34.4998 30 41 23.9315 41 20.3999C41 18.7025 40.3152 17.0747 39.0961 15.8747C37.8769 14.6743 36.2237 14 34.4998 14ZM34.4998 22.0002C34.0688 22.0002 33.6557 21.8314 33.351 21.5314C33.0463 21.2314 32.8749 20.8243 32.8749 20.3999C32.8749 19.9755 33.0463 19.5688 33.351 19.2688C33.6557 18.9687 34.0688 18.8 34.4998 18.8C34.9308 18.8 35.3443 18.9688 35.649 19.2688C35.9537 19.5688 36.1251 19.9755 36.1251 20.3999C36.1251 20.8243 35.9537 21.2314 35.649 21.5314C35.3443 21.8315 34.9308 22.0002 34.4998 22.0002Z" fill="#E85881"/>
</svg>
