<svg width="48" height="48" viewBox="0 0 48 48" fill="none" xmlns="http://www.w3.org/2000/svg">
<circle cx="24" cy="24" r="24" fill="white"/>
<path d="M11.5998 29.8439C10.9818 29.451 10.9818 28.549 11.5998 28.1561L22.9273 20.9543C23.5821 20.538 24.4186 20.538 25.0734 20.9543L36.401 28.1561C37.019 28.549 37.019 29.451 36.401 29.8439L25.0734 37.0457C24.4186 37.462 23.5821 37.462 22.9273 37.0457L11.5998 29.8439Z" fill="#E67474"/>
<path d="M11.5998 29.8439C10.9818 29.451 10.9818 28.549 11.5998 28.1561L22.9273 20.9543C23.5821 20.538 24.4186 20.538 25.0734 20.9543L36.401 28.1561C37.019 28.549 37.019 29.451 36.401 29.8439L25.0734 37.0457C24.4186 37.462 23.5821 37.462 22.9273 37.0457L11.5998 29.8439Z" fill="#E85881"/>
<path d="M11.5998 24.8439C10.9818 24.451 10.9818 23.549 11.5998 23.1561L22.9273 15.9543C23.5821 15.538 24.4186 15.538 25.0734 15.9543L36.401 23.1561C37.019 23.549 37.019 24.451 36.401 24.8439L25.0734 32.0457C24.4186 32.462 23.5821 32.462 22.9273 32.0457L11.5998 24.8439Z" fill="#FFB3B3"/>
<path d="M11.5998 24.8439C10.9818 24.451 10.9818 23.549 11.5998 23.1561L22.9273 15.9543C23.5821 15.538 24.4186 15.538 25.0734 15.9543L36.401 23.1561C37.019 23.549 37.019 24.451 36.401 24.8439L25.0734 32.0457C24.4186 32.462 23.5821 32.462 22.9273 32.0457L11.5998 24.8439Z" fill="#FF8DB6"/>
<path d="M11.5998 19.8439C10.9818 19.451 10.9818 18.549 11.5998 18.1561L22.9273 10.9543C23.5821 10.538 24.4186 10.538 25.0734 10.9543L36.401 18.1561C37.019 18.549 37.019 19.451 36.401 19.8439L25.0734 27.0457C24.4186 27.462 23.5821 27.462 22.9273 27.0457L11.5998 19.8439Z" fill="#FFD1DF"/>
</svg>
