<svg width="444" height="370" viewBox="0 0 444 370" fill="none" xmlns="http://www.w3.org/2000/svg">
<path d="M238.511 59.1756C234.802 61.2902 231.859 64.2629 229.744 67.8179L209.269 19L197.468 20.3773L58 100.721L139.229 240.587L147.658 243.287L194.402 215.781C194.126 220.439 195.077 225.036 197.468 229.204C204.885 242.229 223.185 245.814 238.419 237.172C253.622 228.53 259.937 210.969 252.55 197.914C250.189 193.746 246.695 190.558 242.557 188.413L284.673 164.509L257.883 117.343C262.021 117.343 266.067 116.362 269.776 114.248C282.803 106.831 286.39 88.5352 277.746 73.3037C269.132 58.1029 251.538 51.759 238.511 59.1756Z" fill="url(#paint0_linear_501_29526)"/>
<path d="M267.386 77.1654C251.14 81.8237 232.258 98.6794 214.94 88.4741C206.97 83.7851 203.691 74.9588 208.472 66.6535C211.599 61.2597 216.227 56.5401 220.795 52.0044L220.335 51.1769C217.453 54.1803 214.572 57.2143 211.844 60.3403C207.461 65.3664 203.599 71.6796 205.56 78.6058C207.308 84.7964 212.886 89.3628 218.802 91.3549C226.465 93.9292 234.803 91.9984 242.128 89.1483C251.14 85.6239 259.416 80.2607 268.857 77.809C272.26 76.9202 275.969 76.5525 279.555 76.8283C279.402 76.4605 279.218 76.0928 279.034 75.6943C275.141 75.5105 271.187 76.0621 267.386 77.1654Z" fill="url(#paint1_linear_501_29526)"/>
<path d="M259.477 116.792C242.894 119.274 223.43 126.047 218.189 143.945C213.499 159.912 225.76 174.591 239.89 180.384C243.691 181.947 247.615 182.866 251.6 183.326L253.163 182.437C249.454 182.1 245.745 181.395 242.159 180.108C227.017 174.775 213.56 159.023 219.875 142.351C226.005 126.108 242.588 120.929 258.404 118.201L257.914 117.343C260.703 117.343 263.493 116.884 266.129 115.934C263.861 116.179 261.654 116.455 259.477 116.792Z" fill="url(#paint2_linear_501_29526)"/>
<path d="M159.306 235.701L160.808 234.843C169.329 214.064 175.674 192.366 173.13 169.688C171.567 155.682 166.478 141.432 156.792 130.92C152.685 126.476 147.566 122.645 141.589 121.174C135.06 119.55 128.408 121.174 122.615 124.331C109.772 131.287 100.944 146.274 86.5374 150.288L86.9972 151.116C93.2809 149.124 99.0741 144.925 104.04 140.543C115.167 130.705 128.776 116.301 145.144 123.534C158.815 129.602 166.846 145.599 170.218 159.391C176.686 185.563 169.39 211.367 159.306 235.701Z" fill="url(#paint3_linear_501_29526)"/>
<path d="M136.071 79.1879C132.332 85.685 125.834 90.7724 119.856 95.0936C113.266 99.8745 106.063 103.797 98.4611 106.77C88.7444 110.57 77.2192 112.991 69.3722 120.04L69.8933 120.929C74.9202 116.332 81.5411 113.757 87.9168 111.551C95.917 108.793 103.733 106.065 111.121 101.897C118.017 98.005 124.516 93.3161 130.247 87.8609C134.263 84.0301 138.156 79.4637 139.229 73.886C140.301 68.4309 138.738 63.4048 135.765 59.053L134.692 59.6659C138.677 65.3662 140.056 72.2004 136.071 79.1879Z" fill="url(#paint4_linear_501_29526)"/>
<path d="M407.895 388.098H289.787V349.415C291.056 350.13 294.329 349.415 296.168 348.178C297.602 348.568 296.739 351.671 298.287 351.671C309.001 351.671 317.698 341.551 317.698 329.043C317.698 316.536 309.042 305.022 296.168 306.858C293.122 306.858 292.372 307.226 289.787 308.694V269.989L297.087 268.294L332.245 269.989C331.172 267.732 330.58 265.279 330.58 262.694C330.58 251.983 340.702 243.287 353.212 243.287C365.699 243.287 375.843 251.983 375.843 262.694C375.843 265.279 375.252 267.732 374.178 269.989H407.895V388.098Z" fill="url(#paint5_linear_501_29526)"/>
<path d="M317.391 325.341C317.435 325.604 317.457 325.867 317.501 326.13C326.812 328.54 338.292 334.695 346.289 326.042C349.4 322.669 351.021 318.113 351.963 313.71C353.234 307.664 353.584 301.378 353.146 295.245C352.708 289.155 351.24 283.394 349.706 277.524C347.976 270.931 347.034 264.162 350.517 257.963C353.847 252.005 359.127 248.456 365.108 246.222C364.801 246.069 364.495 245.916 364.188 245.762C360.858 247.098 357.703 248.895 354.921 251.392C351.481 254.458 348.786 258.445 347.778 262.979C346.42 269.025 348.282 275.136 349.838 280.941C351.678 287.797 352.73 294.763 352.554 301.882C352.401 308.059 351.678 314.63 349.115 320.325C346.442 326.24 341.491 330.182 334.787 329.876C328.74 329.591 323.197 326.809 317.391 325.341Z" fill="url(#paint6_linear_501_29526)"/>
<path d="M407.895 354.694C401.147 362.36 389.733 364.288 379.94 364.003C361.69 363.477 339.957 355.285 323.351 366.588C316.077 371.538 312.199 379.643 311.082 388.142H311.849C312.922 380.147 316.427 372.48 323.131 367.661C339.672 355.745 361.975 364.353 380.356 364.77C389.383 364.989 398.978 363.455 406.099 357.475C406.756 356.928 407.326 356.358 407.895 355.767V354.694Z" fill="url(#paint7_linear_501_29526)"/>
<path d="M400.161 270.011H399.197C399.044 270.273 398.891 270.514 398.737 270.777C388.901 287.425 390.785 308.804 402.221 324.093C404.083 326.568 406.121 329.175 407.895 331.891V330.358C406.296 328.08 404.521 325.911 402.878 323.699C399.899 319.712 397.445 315.441 395.802 310.731C392.537 301.4 392.231 291.061 394.947 281.554C396.108 277.414 397.905 273.559 400.161 270.011Z" fill="url(#paint8_linear_501_29526)"/>
<path d="M463 72.1842L438.7 184.278L432.392 186.248L399.823 177.534C401.445 175.632 402.652 173.415 403.322 170.919C406.099 160.572 398.555 149.551 386.493 146.324C374.409 143.091 362.378 148.875 359.602 159.221C359.373 160.073 365.686 163.682 365.595 164.536C362.836 165.454 365.595 164.536 359.319 166.697L318.287 155.719L328.336 118.269C330.651 118.167 332.95 117.248 334.789 116.789C335.943 117.416 334.638 122.313 335.956 122.666C346.305 125.435 357.329 117.907 360.571 105.826C363.807 93.766 358.035 81.722 347.687 78.9533C344.745 78.1663 341.763 78.2074 338.885 78.9569L348.895 41.6551L355.48 40.1188L463 72.1842Z" fill="url(#paint9_linear_501_29526)"/>
<path d="M459.883 83.8001C454.776 80.3475 449.215 77.6577 443.051 76.3713C435.51 74.8071 427.54 75.6001 420.411 78.5003C413.004 81.5075 407.122 86.6915 402.394 93.0688C396.92 100.449 392.866 108.797 386.936 115.851C381.776 121.977 375.523 127.107 368.583 131.078C354.718 139.047 338.298 142.341 322.526 140.004L322.333 140.723C335.13 142.65 348.346 140.903 360.357 135.952C374.975 129.908 386.223 119.606 394.608 106.361C399.53 98.5842 404.148 90.25 411.523 84.4902C418.478 79.0263 427.387 76.1714 436.206 76.354C444.977 76.5465 452.701 79.8829 459.683 84.6309L459.904 83.8057L459.883 83.8001Z" fill="url(#paint10_linear_501_29526)"/>
<path d="M277.839 339.917C277.839 350.498 270.468 359.093 261.389 359.093C258.808 359.093 256.376 358.406 254.185 357.181V389.963H154.095V289.89L160.808 288.035L191.283 289.89C189.742 292.248 188.869 294.976 188.869 297.872C188.869 306.95 197.447 314.319 208.048 314.319C218.631 314.319 227.227 306.95 227.227 297.872C227.227 294.976 226.354 292.248 224.813 289.89L232.426 288.035L254.185 322.691C256.358 321.447 258.79 320.76 261.389 320.76C270.468 320.742 277.839 329.336 277.839 339.917Z" fill="url(#paint11_linear_501_29526)"/>
<path d="M199.044 376.282C198.765 367.966 197.336 359.427 189.445 354.99C175.817 347.342 161.224 357.106 154.113 369.191V370.36C156.657 365.608 160.166 361.376 164.64 358.146C171.417 353.227 180.273 351.259 188.052 354.99C196.649 359.093 198.134 368.003 198.431 376.635C198.579 381.071 198.635 385.526 198.635 389.963H199.266C199.248 385.396 199.192 380.83 199.044 376.282Z" fill="url(#paint12_linear_501_29526)"/>
<path d="M235.823 329.021C240.149 333.29 246.425 330.896 250.973 328.334C254.779 326.181 258.326 323.638 261.593 320.76C261.519 320.76 261.463 320.76 261.389 320.76C261.129 320.76 260.869 320.779 260.609 320.779C257.527 323.415 254.204 325.772 250.658 327.777C247.26 329.689 242.934 331.731 238.998 330.283C235.508 329.021 233.855 325.457 233.243 322.041C232.017 315.303 233.707 307.803 236.417 301.603C238.311 297.278 239.89 295.468 232.426 288.035L246.051 301.603C239.962 308.434 233.261 305.409 232.426 314.597C231.962 319.387 232.147 325.382 235.823 329.021Z" fill="url(#paint13_linear_501_29526)"/>
<path d="M267.59 357.682C267.831 357.571 268.073 357.441 268.295 357.329C264.656 353.635 260.312 350.795 254.742 349.551C247.316 347.899 240.149 350.665 235.637 356.754C230.606 363.529 229.938 372.217 231.98 380.217C232.815 383.503 234.041 386.863 235.6 390H236.399C234.691 386.584 233.298 383.02 232.425 379.326C230.587 371.437 231.479 362.898 236.696 356.457C241.857 350.071 249.933 348.27 257.546 351.073C261.426 352.447 264.731 354.823 267.59 357.682Z" fill="url(#paint14_linear_501_29526)"/>
<path d="M154.095 340.808V341.532C162.747 336.743 169.69 328.947 173.199 319.628C176.82 310.068 176.541 299.339 172.884 289.89H172.197C175.799 299.079 176.17 309.493 172.791 318.885C169.468 328.167 162.654 335.982 154.095 340.808Z" fill="url(#paint15_linear_501_29526)"/>
<path d="M244.826 57.3352C241.123 59.4496 238.185 62.422 236.074 65.9767L209.452 19L66 100.573L147.487 244.231L200.792 213.924C200.517 218.582 201.466 223.178 203.852 227.346C211.257 240.37 229.526 243.955 244.734 235.313C259.911 226.672 266.215 209.113 258.84 196.059C256.484 191.891 252.996 188.704 248.865 186.559L290.909 162.657L264.165 115.497C268.296 115.497 272.335 114.516 276.037 112.402C289.042 104.986 292.622 86.6918 283.993 71.4619C275.395 56.2626 257.83 49.9194 244.826 57.3352Z" fill="#5A207D"/>
<path d="M244.826 57.3352C241.123 59.4496 238.185 62.422 236.074 65.9767L209.452 19L66 100.573L147.487 244.231L200.792 213.924C200.517 218.582 201.466 223.178 203.852 227.346C211.257 240.37 229.526 243.955 244.734 235.313C259.911 226.672 266.215 209.113 258.84 196.059C256.484 191.891 252.996 188.704 248.865 186.559L290.909 162.657L264.165 115.497C268.296 115.497 272.335 114.516 276.037 112.402C289.042 104.986 292.622 86.6918 283.993 71.4619C275.395 56.2626 257.83 49.9194 244.826 57.3352Z" fill="#713994"/>
<path d="M244.826 57.3352C241.123 59.4496 238.185 62.422 236.074 65.9767L209.452 19L66 100.573L147.487 244.231L200.792 213.924C200.517 218.582 201.466 223.178 203.852 227.346C211.257 240.37 229.526 243.955 244.734 235.313C259.911 226.672 266.215 209.113 258.84 196.059C256.484 191.891 252.996 188.704 248.865 186.559L290.909 162.657L264.165 115.497C268.296 115.497 272.335 114.516 276.037 112.402C289.042 104.986 292.622 86.6918 283.993 71.4619C275.395 56.2626 257.83 49.9194 244.826 57.3352Z" fill="#6A358B"/>
<path d="M413.92 268.148V386.224H296.014V347.544C298.573 348.99 301.438 349.8 304.5 349.8C315.195 349.8 323.877 339.681 323.877 327.175C323.877 314.669 315.195 304.55 304.5 304.55C301.46 304.55 298.594 305.36 296.014 306.828V268.127H338.4C337.328 265.871 336.737 263.418 336.737 260.833C336.737 250.123 346.842 241.428 359.33 241.428C371.797 241.428 381.923 250.123 381.923 260.833C381.923 263.418 381.332 265.871 380.261 268.127H413.92V268.148Z" fill="#B589CF"/>
<path d="M413.92 268.148V386.224H296.014V347.544C298.573 348.99 301.438 349.8 304.5 349.8C315.195 349.8 323.877 339.681 323.877 327.175C323.877 314.669 315.195 304.55 304.5 304.55C301.46 304.55 298.594 305.36 296.014 306.828V268.127H338.4C337.328 265.871 336.737 263.418 336.737 260.833C336.737 250.123 346.842 241.428 359.33 241.428C371.797 241.428 381.923 250.123 381.923 260.833C381.923 263.418 381.332 265.871 380.261 268.127H413.92V268.148Z" fill="#5A207D"/>
<g opacity="0.6">
<path opacity="0.6" d="M413.92 352.823C407.184 360.488 395.789 362.416 386.013 362.131C367.794 361.606 346.098 353.414 329.52 364.716C322.259 369.666 318.388 377.769 317.272 386.267H318.038C319.11 378.273 322.609 370.607 329.302 365.789C345.814 353.874 368.079 362.482 386.429 362.898C395.439 363.117 405.019 361.584 412.127 355.604C412.783 355.057 413.352 354.487 413.92 353.896V352.823Z" fill="white"/>
</g>
<path d="M468.931 70.3466L438.379 184.394L405.865 175.68C407.484 173.779 408.689 171.562 409.358 169.066C412.129 158.721 404.597 147.701 392.555 144.474C380.492 141.241 368.482 147.023 365.71 157.368C365.042 159.864 364.977 162.387 365.429 164.843L324.464 153.864L334.495 116.42C336.588 118.499 339.145 120.024 342.103 120.817C352.434 123.585 363.44 116.06 366.676 103.98C369.906 91.9214 364.143 79.8787 353.812 77.1099C350.875 76.3229 347.898 76.3639 345.025 77.1132L355.017 39.8165L468.931 70.3466Z" fill="#D9CEE0"/>
<path d="M468.931 70.3466L438.379 184.394L405.865 175.68C407.484 173.779 408.689 171.562 409.358 169.066C412.129 158.721 404.597 147.701 392.555 144.474C380.492 141.241 368.482 147.023 365.71 157.368C365.042 159.864 364.977 162.387 365.429 164.843L324.464 153.864L334.495 116.42C336.588 118.499 339.145 120.024 342.103 120.817C352.434 123.585 363.44 116.06 366.676 103.98C369.906 91.9214 364.143 79.8787 353.812 77.1099C350.875 76.3229 347.898 76.3639 345.025 77.1132L355.017 39.8165L468.931 70.3466Z" fill="#DCC1ED"/>
<path d="M284.086 338.048C284.086 348.628 276.728 357.222 267.665 357.222C265.088 357.222 262.66 356.535 260.473 355.31V388.089H160.554V288.026H197.678C196.14 290.383 195.269 293.112 195.269 296.007C195.269 305.084 203.832 312.452 214.415 312.452C224.98 312.452 233.561 305.084 233.561 296.007C233.561 293.112 232.69 290.383 231.152 288.026H260.473V320.823C262.642 319.58 265.07 318.893 267.665 318.893C276.728 318.874 284.086 327.468 284.086 338.048Z" fill="#DCC1ED"/>
<path d="M284.086 338.048C284.086 348.628 276.728 357.222 267.665 357.222C265.088 357.222 262.66 356.535 260.473 355.31V388.089H160.554V288.026H197.678C196.14 290.383 195.269 293.112 195.269 296.007C195.269 305.084 203.832 312.452 214.415 312.452C224.98 312.452 233.561 305.084 233.561 296.007C233.561 293.112 232.69 290.383 231.152 288.026H260.473V320.823C262.642 319.58 265.07 318.893 267.665 318.893C276.728 318.874 284.086 327.468 284.086 338.048Z" fill="#713994"/>
<path d="M284.086 338.048C284.086 348.628 276.728 357.222 267.665 357.222C265.088 357.222 262.66 356.535 260.473 355.31V388.089H160.554V288.026H197.678C196.14 290.383 195.269 293.112 195.269 296.007C195.269 305.084 203.832 312.452 214.415 312.452C224.98 312.452 233.561 305.084 233.561 296.007C233.561 293.112 232.69 290.383 231.152 288.026H260.473V320.823C262.642 319.58 265.07 318.893 267.665 318.893C276.728 318.874 284.086 327.468 284.086 338.048Z" fill="#5A207D"/>
<path d="M284.086 338.048C284.086 348.628 276.728 357.222 267.665 357.222C265.088 357.222 262.66 356.535 260.473 355.31V388.089H160.554V288.026H197.678C196.14 290.383 195.269 293.112 195.269 296.007C195.269 305.084 203.832 312.452 214.415 312.452C224.98 312.452 233.561 305.084 233.561 296.007C233.561 293.112 232.69 290.383 231.152 288.026H260.473V320.823C262.642 319.58 265.07 318.893 267.665 318.893C276.728 318.874 284.086 327.468 284.086 338.048Z" fill="#B589CF"/>
<path d="M284.086 338.048C284.086 348.628 276.728 357.222 267.665 357.222C265.088 357.222 262.66 356.535 260.473 355.31V388.089H160.554V288.026H197.678C196.14 290.383 195.269 293.112 195.269 296.007C195.269 305.084 203.832 312.452 214.415 312.452C224.98 312.452 233.561 305.084 233.561 296.007C233.561 293.112 232.69 290.383 231.152 288.026H260.473V320.823C262.642 319.58 265.07 318.893 267.665 318.893C276.728 318.874 284.086 327.468 284.086 338.048Z" fill="#A679C0"/>
<defs>
<linearGradient id="paint0_linear_501_29526" x1="106.277" y1="221.924" x2="475.867" y2="120.643" gradientUnits="userSpaceOnUse">
<stop stop-color="#4C1E68"/>
<stop offset="1" stop-color="#4C1E68" stop-opacity="0.49"/>
</linearGradient>
<linearGradient id="paint1_linear_501_29526" x1="106.277" y1="221.924" x2="475.867" y2="120.643" gradientUnits="userSpaceOnUse">
<stop stop-color="#4C1E68"/>
<stop offset="1" stop-color="#4C1E68" stop-opacity="0.49"/>
</linearGradient>
<linearGradient id="paint2_linear_501_29526" x1="106.277" y1="221.924" x2="475.867" y2="120.643" gradientUnits="userSpaceOnUse">
<stop stop-color="#4C1E68"/>
<stop offset="1" stop-color="#4C1E68" stop-opacity="0.49"/>
</linearGradient>
<linearGradient id="paint3_linear_501_29526" x1="106.277" y1="221.924" x2="475.867" y2="120.643" gradientUnits="userSpaceOnUse">
<stop stop-color="#4C1E68"/>
<stop offset="1" stop-color="#4C1E68" stop-opacity="0.49"/>
</linearGradient>
<linearGradient id="paint4_linear_501_29526" x1="106.277" y1="221.924" x2="475.867" y2="120.643" gradientUnits="userSpaceOnUse">
<stop stop-color="#4C1E68"/>
<stop offset="1" stop-color="#4C1E68" stop-opacity="0.49"/>
</linearGradient>
<linearGradient id="paint5_linear_501_29526" x1="106.277" y1="221.924" x2="475.867" y2="120.643" gradientUnits="userSpaceOnUse">
<stop stop-color="#4C1E68"/>
<stop offset="1" stop-color="#4C1E68" stop-opacity="0.49"/>
</linearGradient>
<linearGradient id="paint6_linear_501_29526" x1="106.277" y1="221.924" x2="475.867" y2="120.643" gradientUnits="userSpaceOnUse">
<stop stop-color="#4C1E68"/>
<stop offset="1" stop-color="#4C1E68" stop-opacity="0.49"/>
</linearGradient>
<linearGradient id="paint7_linear_501_29526" x1="106.277" y1="221.924" x2="475.867" y2="120.643" gradientUnits="userSpaceOnUse">
<stop stop-color="#4C1E68"/>
<stop offset="1" stop-color="#4C1E68" stop-opacity="0.49"/>
</linearGradient>
<linearGradient id="paint8_linear_501_29526" x1="106.277" y1="221.924" x2="475.867" y2="120.643" gradientUnits="userSpaceOnUse">
<stop stop-color="#4C1E68"/>
<stop offset="1" stop-color="#4C1E68" stop-opacity="0.49"/>
</linearGradient>
<linearGradient id="paint9_linear_501_29526" x1="106.277" y1="221.924" x2="475.867" y2="120.643" gradientUnits="userSpaceOnUse">
<stop stop-color="#4C1E68"/>
<stop offset="1" stop-color="#4C1E68" stop-opacity="0.49"/>
</linearGradient>
<linearGradient id="paint10_linear_501_29526" x1="106.277" y1="221.924" x2="475.867" y2="120.643" gradientUnits="userSpaceOnUse">
<stop stop-color="#4C1E68"/>
<stop offset="1" stop-color="#4C1E68" stop-opacity="0.49"/>
</linearGradient>
<linearGradient id="paint11_linear_501_29526" x1="106.277" y1="221.924" x2="475.867" y2="120.643" gradientUnits="userSpaceOnUse">
<stop stop-color="#4C1E68"/>
<stop offset="1" stop-color="#4C1E68" stop-opacity="0.49"/>
</linearGradient>
<linearGradient id="paint12_linear_501_29526" x1="106.277" y1="221.924" x2="475.867" y2="120.643" gradientUnits="userSpaceOnUse">
<stop stop-color="#4C1E68"/>
<stop offset="1" stop-color="#4C1E68" stop-opacity="0.49"/>
</linearGradient>
<linearGradient id="paint13_linear_501_29526" x1="106.277" y1="221.924" x2="475.867" y2="120.643" gradientUnits="userSpaceOnUse">
<stop stop-color="#4C1E68"/>
<stop offset="1" stop-color="#4C1E68" stop-opacity="0.49"/>
</linearGradient>
<linearGradient id="paint14_linear_501_29526" x1="106.277" y1="221.924" x2="475.867" y2="120.643" gradientUnits="userSpaceOnUse">
<stop stop-color="#4C1E68"/>
<stop offset="1" stop-color="#4C1E68" stop-opacity="0.49"/>
</linearGradient>
<linearGradient id="paint15_linear_501_29526" x1="106.277" y1="221.924" x2="475.867" y2="120.643" gradientUnits="userSpaceOnUse">
<stop stop-color="#4C1E68"/>
<stop offset="1" stop-color="#4C1E68" stop-opacity="0.49"/>
</linearGradient>
</defs>
</svg>
