<svg width="717" height="598" viewBox="0 0 717 598" fill="none" xmlns="http://www.w3.org/2000/svg">
<g clip-path="url(#clip0_501_32646)">
<path d="M421.803 302.535C424.884 302.535 427.9 302.407 430.853 302.214C433.292 302.085 435.859 301.956 438.298 301.956C439.133 301.956 439.839 301.249 439.839 300.348C439.839 299.512 439.133 298.804 438.298 298.804C435.795 298.869 433.228 298.997 430.725 299.126C412.111 300.091 392.919 301.056 374.177 264.969C366.026 249.273 357.168 218.847 359.03 184.497C360.442 156.386 369.941 116.44 406.783 85.5633C407.425 84.9843 407.554 84.0194 406.976 83.3762C406.398 82.7329 405.436 82.6043 404.794 83.1832C367.117 114.767 357.425 155.614 355.885 184.304C354.023 219.233 363.073 250.367 371.417 266.384C387.913 298.225 405.5 302.535 421.803 302.535Z" fill="#0A5E3F"/>
<path d="M427.644 295.138C428.35 295.138 429.12 295.138 429.826 295.074C430.66 295.009 431.366 294.302 431.302 293.401C431.238 292.565 430.532 291.857 429.633 291.922C428.991 291.986 428.285 291.986 427.644 291.986C408.26 291.986 390.288 278.22 378.221 253.905C358.323 213.894 356.398 148.281 392.021 105.44C392.598 104.797 392.47 103.768 391.828 103.253C391.186 102.674 390.159 102.803 389.646 103.446C353.189 147.316 355.114 214.473 375.461 255.32C388.041 280.729 406.976 295.138 427.644 295.138Z" fill="#0A5E3F"/>
<path d="M497.221 95.2764C441.059 51.599 388.363 74.7564 369.428 133.872C351.777 189.064 374.37 307.746 458.132 287.097C544.782 265.676 552.035 239.11 551.329 200.45C550.88 169.573 537.722 126.732 497.221 95.2764Z" fill="#0A5E3F"/>
<path d="M526.425 270.372L606.657 300.412C606.657 300.412 584.192 463.801 582.266 526.197C580.341 588.593 611.792 642.756 611.792 642.756H401.906C401.906 642.756 373.022 472.806 378.799 412.983C384.576 353.16 424.37 291.149 426.296 289.67C428.222 288.19 476.361 277.255 476.361 277.255L526.425 270.372Z" fill="#346956"/>
<path d="M385.217 471.52C385.217 471.52 377.13 547.425 373.792 551.284C370.455 555.144 247.219 615.611 247.219 615.611L426.296 627.832L385.217 471.52Z" fill="#40B088"/>
<path d="M426.296 289.67C406.398 290.12 401.007 322.734 396.321 346.92C391.636 371.171 426.296 289.67 426.296 289.67Z" fill="#40B088"/>
<path d="M460.314 418.773C471.225 379.534 529.826 270.244 529.826 270.244L606.656 300.413C606.656 300.413 589.069 428.486 583.678 501.11L554.474 642.692H460.314C460.314 642.692 449.402 458.012 460.314 418.773Z" fill="url(#paint0_linear_501_32646)"/>
<path d="M525.462 594.383C539.583 575.213 553.383 554.114 539.968 510.115C526.489 466.116 525.205 450.292 529.891 410.41C534.576 370.528 556.014 306.845 597.735 304.915C597.735 304.915 599.083 318.874 601.329 341.131C594.525 393.749 583.614 483.549 582.33 526.197C580.405 588.593 611.855 642.756 611.855 642.756L441.123 646.487C441.058 646.487 511.341 613.487 525.462 594.383Z" fill="url(#paint1_linear_501_32646)"/>
<path d="M378.799 412.983C384.575 353.16 424.37 291.149 426.296 289.67C427.515 288.769 446.322 284.202 460.571 280.921C456.399 290.828 412.303 396.129 414.101 439.485C416.026 485.028 414.036 642.691 414.036 642.691H401.905C401.905 642.691 373.022 472.806 378.799 412.983Z" fill="url(#paint2_linear_501_32646)"/>
<path d="M97.8604 633.75H295.872L211.789 448.297C209.35 442.894 203.959 439.42 197.989 439.42H18.8483C14.5479 439.42 11.7237 443.859 13.4567 447.783L97.8604 633.75Z" fill="#40B088"/>
<path d="M18.8481 439.485H182.392C188.297 439.485 193.689 442.958 196.192 448.362L280.275 633.814H97.8603L13.5208 447.847C11.7236 443.923 14.6119 439.485 18.8481 439.485Z" fill="#5ECAA3"/>
<path d="M112.687 542.728C119.619 557.137 130.851 566.078 137.783 562.733C144.715 559.389 144.715 544.979 137.783 530.57C130.851 516.161 119.619 507.22 112.687 510.565C105.755 513.91 105.755 528.319 112.687 542.728Z" fill="#0A5D3F"/>
<path d="M490.996 169.187C490.996 169.187 507.812 255.255 526.426 270.372C545.04 285.488 483.614 358.177 462.369 339.587C441.124 320.932 460.893 280.149 460.893 280.149C460.893 280.149 472.382 273.073 452.934 227.788C433.421 182.502 485.925 148.795 485.925 148.795L490.996 169.187Z" fill="#C5F4E3"/>
<path d="M485.86 148.795L490.995 169.187C490.995 169.187 493.306 181.151 497.221 196.976C489.968 230.94 476.361 253.068 464.23 267.155C463.845 259.308 461.213 246.957 452.933 227.788C433.421 182.502 485.86 148.795 485.86 148.795Z" fill="#AAE8D2"/>
<path d="M384.576 201.993C395.873 233.255 423.537 258.342 441.059 252.553C469.75 243.097 490.61 220.647 485.668 170.988C479.891 112.515 434.962 105.825 408.646 113.287C382.265 120.749 372.06 167.385 384.576 201.993Z" fill="#C5F4E3"/>
<path d="M529.891 270.243L556.978 280.857L514.23 335.727L526.425 357.598C526.425 357.598 482.394 390.726 469.044 454.859C455.693 518.992 457.105 573.669 457.105 573.669C457.105 573.669 453.832 443.538 460.315 418.644C472.895 370.528 529.891 270.243 529.891 270.243Z" fill="#40B088"/>
<path d="M460.571 280.857C460.571 280.857 426.746 367.89 421.354 392.398C415.963 416.907 414.871 536.618 414.871 536.618C414.871 536.618 399.339 432.281 403.831 401.404C408.324 370.528 414.743 342.61 414.743 342.61L435.282 327.429C435.282 327.429 439.133 286.003 441.38 285.488C443.562 284.909 460.571 280.857 460.571 280.857Z" fill="#40B088"/>
<path d="M480.34 600.043C414.55 580.037 422.509 570.067 398.568 581.388C374.627 592.71 344.653 600.429 358.709 604.031C372.766 607.698 393.947 596.055 393.947 596.055C393.947 596.055 390.609 614.066 402.612 619.341C414.55 624.68 467.696 626.61 497.285 618.311C526.81 610.013 480.34 600.043 480.34 600.043Z" fill="#C4F4E3"/>
<path d="M482.138 596.955H469.044L475.591 634.264C475.591 634.264 501.393 630.405 499.468 627.832C497.542 625.259 482.138 596.955 482.138 596.955Z" fill="#A2DFF2"/>
<path d="M606.657 300.412C632.331 345.44 640.483 370.013 661.407 454.28C682.332 538.547 690.74 576.886 667.633 587.95C648.506 597.084 509.288 638.96 492.407 633.814C484.705 634.265 472.895 594.382 472.895 594.382L599.597 537.775C599.597 537.775 562.947 450.035 556.593 392.398C550.238 334.762 578.416 300.412 592.536 300.412C606.657 300.412 606.657 300.412 606.657 300.412Z" fill="#5ECAA3"/>
<path d="M473.665 174.847C479.891 194.338 477.195 198.326 485.796 200.127C494.397 201.928 502.228 193.437 504.731 181.408C507.298 169.444 502.356 158.251 493.755 156.385C485.154 154.649 469.942 163.204 473.665 174.847Z" fill="#C5F4E3"/>
<path d="M372.766 139.339C406.335 199.162 473.088 190.35 513.588 169.765C546.644 153.041 419.3 89.4863 419.3 89.4863L372.766 139.339Z" fill="#0A5E3F"/>
<path d="M482.138 89.4866C494.59 51.8558 545.617 60.7328 568.724 110.843C591.83 160.889 556.464 194.402 535.026 182.116C513.588 169.83 482.138 89.4866 482.138 89.4866Z" fill="#0A5E3F"/>
</g>
<defs>
<linearGradient id="paint0_linear_501_32646" x1="531.06" y1="270.244" x2="498.939" y2="1367.32" gradientUnits="userSpaceOnUse">
<stop stop-color="#5ECAA3"/>
<stop offset="1" stop-color="#24966D"/>
</linearGradient>
<linearGradient id="paint1_linear_501_32646" x1="542.594" y1="339.406" x2="547.447" y2="678.811" gradientUnits="userSpaceOnUse">
<stop stop-color="#40B088"/>
<stop offset="1" stop-color="#0D8056"/>
</linearGradient>
<linearGradient id="paint2_linear_501_32646" x1="419.303" y1="280.921" x2="363.89" y2="1344.57" gradientUnits="userSpaceOnUse">
<stop stop-color="#5ECAA3"/>
<stop offset="0.5432" stop-color="#4FBC95"/>
<stop offset="1" stop-color="#24966D"/>
</linearGradient>
<clipPath id="clip0_501_32646">
<rect width="717" height="598" fill="white"/>
</clipPath>
</defs>
</svg>
